<?xml version="1.0" encoding="UTF-8" standalone="no"?>
<!-- Created with Inkscape (http://www.inkscape.org/) -->

<svg
   xmlns:dc="http://purl.org/dc/elements/1.1/"
   xmlns:cc="http://creativecommons.org/ns#"
   xmlns:rdf="http://www.w3.org/1999/02/22-rdf-syntax-ns#"
   xmlns:svg="http://www.w3.org/2000/svg"
   xmlns="http://www.w3.org/2000/svg"
   xmlns:sodipodi="http://sodipodi.sourceforge.net/DTD/sodipodi-0.dtd"
   xmlns:inkscape="http://www.inkscape.org/namespaces/inkscape"
   width="300"
   height="300"
   viewBox="0 0 300 300"
   id="svg2"
   version="1.1"
   inkscape:version="0.91 r13725"
   sodipodi:docname="visitaClip.svg">
  <defs
     id="defs4" />
  <sodipodi:namedview
     id="base"
     pagecolor="#ffffff"
     bordercolor="#666666"
     borderopacity="1.0"
     inkscape:pageopacity="0.0"
     inkscape:pageshadow="2"
     inkscape:zoom="1.2181019"
     inkscape:cx="208.8361"
     inkscape:cy="202.64239"
     inkscape:document-units="px"
     inkscape:current-layer="layer1"
     showgrid="false"
     units="px"
     inkscape:window-width="1600"
     inkscape:window-height="838"
     inkscape:window-x="-8"
     inkscape:window-y="-8"
     inkscape:window-maximized="1"
     inkscape:snap-bbox="false" />
  <metadata
     id="metadata7">
    <rdf:RDF>
      <cc:Work
         rdf:about="">
        <dc:format>image/svg+xml</dc:format>
        <dc:type
           rdf:resource="http://purl.org/dc/dcmitype/StillImage" />
        <dc:title></dc:title>
      </cc:Work>
    </rdf:RDF>
  </metadata>
  <g
     inkscape:label="Capa 1"
     inkscape:groupmode="layer"
     id="layer1"
     transform="translate(0,-752.36216)">
    <circle
       style="opacity:1;fill:#ffffff;fill-opacity:1;fill-rule:nonzero;stroke:none;stroke-width:9;stroke-linecap:butt;stroke-linejoin:miter;stroke-miterlimit:4;stroke-dasharray:none;stroke-dashoffset:0;stroke-opacity:1"
       id="path3733"
       cx="150"
       cy="902.36218"
       r="150" />
    <path
       style="color:#000000;font-style:normal;font-variant:normal;font-weight:normal;font-stretch:normal;font-size:medium;line-height:normal;font-family:sans-serif;text-indent:0;text-align:start;text-decoration:none;text-decoration-line:none;text-decoration-style:solid;text-decoration-color:#000000;letter-spacing:normal;word-spacing:normal;text-transform:none;direction:ltr;block-progression:tb;writing-mode:lr-tb;baseline-shift:baseline;text-anchor:start;white-space:normal;clip-rule:nonzero;display:inline;overflow:visible;visibility:visible;opacity:1;isolation:auto;mix-blend-mode:normal;color-interpolation:sRGB;color-interpolation-filters:linearRGB;solid-color:#000000;solid-opacity:1;fill:#f9c505;fill-opacity:1;fill-rule:nonzero;stroke:none;stroke-width:8.83758354;stroke-linecap:butt;stroke-linejoin:miter;stroke-miterlimit:4;stroke-dasharray:none;stroke-dashoffset:0;stroke-opacity:1;color-rendering:auto;image-rendering:auto;shape-rendering:auto;text-rendering:auto;enable-background:accumulate"
       d="m 150,752.36217 c -82.790369,0 -149.9999943131143,67.20964 -150,150 -5.6868863e-6,82.79038 67.209623,149.99993 150,149.99993 82.79038,0 150.00001,-67.20955 150,-149.99992 -10e-6,-82.79037 -67.20963,-150 -150,-150 z m 0,8.83789 c 78.01419,0 141.1621,63.14792 141.16211,141.16211 0,78.01419 -63.14792,141.16403 -141.16211,141.16403 C 71.985807,1043.5262 8.8378853,980.37637 8.8378906,902.36217 8.837896,824.34798 71.985815,761.20006 150,761.20006 Z"
       id="path3714"
       inkscape:connector-curvature="0" />
    <g
       style="font-style:normal;font-variant:normal;font-weight:normal;font-stretch:normal;font-size:199.36717224px;line-height:125%;font-family:IcoFont;-inkscape-font-specification:IcoFont;text-align:center;letter-spacing:0px;word-spacing:0px;text-anchor:middle;fill:#f9c505;fill-opacity:1;stroke:none;stroke-width:1px;stroke-linecap:butt;stroke-linejoin:miter;stroke-opacity:1"
       id="text3735">
      <path
         d="m 232.43618,846.50268 -29.70571,0 q -1.39557,0 -2.3924,-0.99683 -0.99684,-1.19621 -0.99684,-2.59178 l 0,-29.10761 q 0,-1.39557 -1.1962,-2.3924 -0.99684,-0.99684 -2.39241,-0.99684 l -90.91143,0 q -1.39557,0 -2.59177,0.99684 -0.99684,0.99683 -0.99684,2.3924 l 0,29.10761 q 0,1.39557 -0.99683,2.59178 -0.996841,0.99683 -2.392411,0.99683 l -29.705708,0 q -7.376586,0 -12.560132,5.18355 -4.98418,4.98418 -4.98418,12.1614 l 0,99.28485 q 0,7.17722 4.98418,12.16139 5.183546,5.18355 12.560132,5.18355 l 8.373421,0 0,0.99684 q 0,1.39557 1.993672,2.3924 1.993671,1.19621 4.984179,1.19621 l 28.310137,0 q 2.79114,0 4.78481,-1.19621 2.19304,-0.99683 2.19304,-2.3924 l 0,-0.99684 65.79117,0 0,0.99684 q 0,1.39557 1.99367,2.3924 2.19304,1.19621 4.98418,1.19621 l 28.31014,0 q 2.99051,0 4.98418,-1.19621 1.99367,-0.99683 1.99367,-2.3924 l 0,-0.99684 5.58228,0 q 7.37659,0 12.36077,-5.18355 5.18354,-4.98417 5.18354,-12.16139 l 0,-99.28485 q 0,-7.17722 -5.18354,-12.1614 -4.98418,-5.18355 -12.36077,-5.18355 z M 130.95829,830.75267 q 0,-1.39557 0.99684,-2.3924 1.1962,-1.1962 2.59177,-1.1962 l 31.50001,0 q 1.39557,0 2.39241,1.1962 0.99683,0.99683 0.99683,2.3924 l 0,12.1614 q 0,1.39557 -0.99683,2.59178 -0.99684,0.99683 -2.39241,0.99683 l -7.37658,0 0,-0.19937 q 0,-1.39557 -0.99684,-2.3924 -0.99683,-0.99684 -2.39241,-0.99684 l -9.96835,0 q -1.39557,0 -2.59178,0.99684 -0.99683,0.99683 -0.99683,2.3924 l 0,0.19937 -7.17722,0 q -1.39557,0 -2.59177,-0.99683 -0.99684,-1.19621 -0.99684,-2.59178 l 0,-12.1614 z m 46.05382,90.91144 q 0,0.5981 -0.5981,1.1962 -0.39874,0.39873 -1.19621,0.39873 l -14.15507,0 q -0.79747,0 -1.39557,0.5981 -0.39873,0.39874 -0.39873,1.19621 l 0,14.15507 q 0,0.5981 -0.5981,1.1962 -0.39874,0.39873 -0.99684,0.39873 l -11.96203,0 q -0.5981,0 -1.1962,-0.39873 -0.39874,-0.5981 -0.39874,-1.1962 l 0,-14.15507 q 0,-0.79747 -0.5981,-1.19621 -0.39873,-0.5981 -1.1962,-0.5981 l -14.15507,0 q -0.79747,0 -1.39557,-0.39873 -0.39874,-0.5981 -0.39874,-1.1962 l 0,-11.96204 q 0,-0.79746 0.39874,-1.1962 0.5981,-0.5981 1.39557,-0.5981 l 14.15507,0 q 0.79747,0 1.1962,-0.39873 0.5981,-0.59811 0.5981,-1.19621 l 0,-14.15507 q 0,-0.79747 0.39874,-1.1962 0.5981,-0.5981 1.1962,-0.5981 l 11.96203,0 q 0.5981,0 0.99684,0.5981 0.5981,0.39873 0.5981,1.1962 l 0,14.15507 q 0,0.5981 0.39873,1.19621 0.5981,0.39873 1.39557,0.39873 l 14.15507,0 q 0.79747,0 1.19621,0.5981 0.5981,0.39874 0.5981,1.1962 l 0,11.96204 z"
         style=""
         id="path3740" />
    </g>
  </g>
</svg>
