<?xml version="1.0" encoding="UTF-8" standalone="no"?>
<!-- Created with Inkscape (http://www.inkscape.org/) -->

<svg
   xmlns:dc="http://purl.org/dc/elements/1.1/"
   xmlns:cc="http://creativecommons.org/ns#"
   xmlns:rdf="http://www.w3.org/1999/02/22-rdf-syntax-ns#"
   xmlns:svg="http://www.w3.org/2000/svg"
   xmlns="http://www.w3.org/2000/svg"
   xmlns:sodipodi="http://sodipodi.sourceforge.net/DTD/sodipodi-0.dtd"
   xmlns:inkscape="http://www.inkscape.org/namespaces/inkscape"
   width="400"
   height="400"
   viewBox="0 0 399.99998 399.99998"
   id="svg5239"
   version="1.1"
   inkscape:version="0.91 r13725"
   sodipodi:docname="logoGatoVector.svg">
  <defs
     id="defs5241" />
  <sodipodi:namedview
     id="base"
     pagecolor="#ffffff"
     bordercolor="#666666"
     borderopacity="1.0"
     inkscape:pageopacity="0.0"
     inkscape:pageshadow="2"
     inkscape:zoom="0.32602418"
     inkscape:cx="1461.0807"
     inkscape:cy="268.62761"
     inkscape:document-units="px"
     inkscape:current-layer="layer1"
     showgrid="false"
     inkscape:window-width="1600"
     inkscape:window-height="838"
     inkscape:window-x="-8"
     inkscape:window-y="-8"
     inkscape:window-maximized="1"
     units="px" />
  <metadata
     id="metadata5244">
    <rdf:RDF>
      <cc:Work
         rdf:about="">
        <dc:format>image/svg+xml</dc:format>
        <dc:type
           rdf:resource="http://purl.org/dc/dcmitype/StillImage" />
        <dc:title></dc:title>
      </cc:Work>
    </rdf:RDF>
  </metadata>
  <g
     inkscape:label="Capa 1"
     inkscape:groupmode="layer"
     id="layer1"
     transform="translate(0,-652.36216)">
    <rect
       inkscape:export-ydpi="64.599998"
       inkscape:export-xdpi="64.599998"
       y="630.89136"
       x="-122.6903"
       height="400"
       width="2582.3533"
       id="rect5067"
       style="opacity:1;fill:#a35bb4;fill-opacity:1;fill-rule:nonzero;stroke:none;stroke-width:0.5;stroke-linecap:round;stroke-linejoin:miter;stroke-miterlimit:4;stroke-dasharray:none;stroke-dashoffset:0;stroke-opacity:1" />
    <g
       style="opacity:1"
       id="g5069"
       transform="matrix(1.7813688,0,0,1.7813688,-632.31702,-666.44471)"
       inkscape:export-xdpi="30.025919"
       inkscape:export-ydpi="30.025919">
      <rect
         inkscape:export-ydpi="68.089996"
         inkscape:export-xdpi="68.089996"
         y="773.30292"
         x="387.93082"
         height="158.60741"
         width="158.60741"
         id="rect5071"
         style="opacity:1;fill:none;fill-opacity:1;fill-rule:nonzero;stroke:none;stroke-width:0.5;stroke-linecap:round;stroke-linejoin:miter;stroke-miterlimit:4;stroke-dasharray:none;stroke-dashoffset:0;stroke-opacity:1" />
      <ellipse
         inkscape:export-ydpi="238.67"
         inkscape:export-xdpi="238.67"
         ry="4.977921"
         rx="63.468494"
         cy="912.83398"
         cx="467.23471"
         id="ellipse5073"
         style="opacity:1;fill:#4e2e5d;fill-opacity:1;stroke:#4e2e5d;stroke-width:2.32302999;stroke-linecap:round;stroke-linejoin:round;stroke-miterlimit:4;stroke-dasharray:none;stroke-dashoffset:0;stroke-opacity:1" />
      <path
         sodipodi:nodetypes="cssccsscc"
         inkscape:connector-curvature="0"
         id="path5076"
         d="m 404.27032,877.74511 0,5.73779 c 0,5.35355 4.31163,9.66055 9.66518,9.66055 l 36.90472,0 32.80091,0 36.89282,0 c 5.35362,0 9.66518,-4.307 9.66518,-9.66055 l 0,-5.73779 z"
         style="opacity:1;fill:#000000;fill-opacity:1;stroke:none;stroke-width:0.15462542;stroke-linecap:round;stroke-linejoin:round;stroke-miterlimit:4;stroke-dasharray:none;stroke-dashoffset:0;stroke-opacity:1" />
      <circle
         inkscape:export-ydpi="238.67"
         inkscape:export-xdpi="238.67"
         r="1.4872427"
         cy="886.54041"
         cx="515.29108"
         id="circle5078"
         style="opacity:1;fill:#ffffff;fill-opacity:1;stroke:#ffffff;stroke-width:1.07076025;stroke-linecap:round;stroke-linejoin:round;stroke-miterlimit:4;stroke-dasharray:none;stroke-dashoffset:0;stroke-opacity:1" />
      <rect
         inkscape:export-ydpi="238.67"
         inkscape:export-xdpi="238.67"
         ry="0.795183"
         y="885.74524"
         x="502.53214"
         height="1.590366"
         width="7.8014011"
         id="rect5080"
         style="opacity:1;fill:#ffffff;fill-opacity:1;stroke:#ffffff;stroke-width:2.45519066;stroke-linecap:round;stroke-linejoin:round;stroke-miterlimit:4;stroke-dasharray:none;stroke-dashoffset:0;stroke-opacity:1" />
      <path
         inkscape:export-ydpi="238.67"
         inkscape:export-xdpi="238.67"
         inkscape:connector-curvature="0"
         id="path5167"
         d="m 402.74774,786.23981 c -6.47722,0 -11.69289,5.30117 -11.69289,11.88957 l 0,74.70314 152.35932,0 0,-74.70314 c 0,-6.5884 -5.21566,-11.88957 -11.69289,-11.88957 l -128.97354,0 z"
         style="opacity:1;fill:#000000;fill-opacity:1;stroke:none;stroke-width:1;stroke-linecap:round;stroke-linejoin:round;stroke-miterlimit:4;stroke-dasharray:none;stroke-dashoffset:0;stroke-opacity:1" />
      <path
         sodipodi:type="inkscape:offset"
         inkscape:radius="1.7857174"
         inkscape:original="M 219.13867 541.0957 C 216.84582 541.0957 215.08203 542.83038 215.08203 545.3125 L 215.08203 601.05273 L 328.98438 601.05273 L 328.98438 545.3125 C 328.98438 542.82903 327.22256 541.0957 324.92969 541.0957 L 219.13867 541.0957 z "
         style="opacity:1;fill:#dddddd;fill-opacity:1;stroke:none;stroke-width:1;stroke-linecap:round;stroke-linejoin:round;stroke-miterlimit:4;stroke-dasharray:none;stroke-dashoffset:0;stroke-opacity:1"
         id="path5169"
         d="m 219.13867,539.31055 c -3.19352,0 -5.8418,2.67388 -5.84179,6.00195 l 0,55.74023 a 1.7858959,1.7858959 0 0 0 1.78515,1.78516 l 113.90235,0 a 1.7858959,1.7858959 0 0 0 1.78515,-1.78516 l 0,-55.74023 c 0,-3.32802 -2.64701,-6.00195 -5.83984,-6.00195 l -105.79102,0 z"
         transform="matrix(1.211562,0,0,1.211562,137.64942,137.64434)"
         inkscape:export-xdpi="238.67"
         inkscape:export-ydpi="238.67" />
      <g
         id="g5171">
        <g
           id="g5173"
           transform="matrix(1.8308962,0,0,1.8308962,100.79417,404.87928)">
          <path
             sodipodi:nodetypes="ccccccccccccccccccccccsccccccccccccccssscsccccssscscccccccccsssssccsscscsccccccccsccccccccccccccccccsccssscccccscccccsccscccccccccsccsccccsccsccccccsssscccccccccccccccccccccccccccsccccsccccssccccccccccccccccccccccccccccccccccccccccccccccccccccccccccccc"
             inkscape:connector-curvature="0"
             id="path5209"
             d="m 217.66629,211.51322 c -0.14748,-0.007 -0.28899,-0.004 -0.42558,0.004 -0.55412,0.0298 -1.03854,0.14401 -1.43687,0.27335 -0.97258,0.31341 -1.75916,0.76031 -2.38082,1.14496 -8.1e-4,4.8e-4 -0.001,0.001 -0.002,0.002 -0.83997,0.5166 -1.58663,1.06461 -2.23173,1.5674 -1.6198,1.26197 -2.96384,2.52663 -3.84191,3.40122 -0.0255,0.0254 -0.0354,0.0392 -0.0604,0.0642 -1.19404,-0.45544 -2.71653,-0.89083 -4.54493,-1.09998 l -6.4e-4,0 c -0.69643,-0.0795 -1.4202,-0.12491 -2.16693,-0.12991 l -3.3e-4,0 c -1.31699,-0.009 -2.55076,0.10894 -3.67425,0.3048 -1.19708,0.20849 -2.16711,0.50175 -3.02565,0.80776 -0.79978,-0.61175 -1.98832,-1.43824 -3.47231,-2.21505 -0.64228,-0.33617 -1.38047,-0.68306 -2.2028,-0.98234 l -9.6e-4,-3.2e-4 c -0.70396,-0.25692 -1.5237,-0.49783 -2.44437,-0.62093 -0.8006,-0.10941 -1.74386,-0.12683 -2.75011,0.12519 -0.004,9.7e-4 -0.007,0.002 -0.011,0.003 -0.99522,0.25445 -1.94797,0.78231 -2.71048,1.59382 -0.007,0.007 -0.0133,0.0144 -0.0198,0.0217 -0.28813,0.31455 -0.53534,0.65349 -0.74234,1.00561 -0.33144,0.56381 -0.55257,1.14466 -0.69452,1.71052 -0.2516,0.99387 -0.28989,1.93128 -0.25322,2.74759 1e-5,1.1e-4 0,1.6e-4 0,3.2e-4 0.088,2.00661 0.59101,3.77728 1.04211,5.12999 1.6e-4,6.5e-4 4.8e-4,9.7e-4 6.4e-4,0.002 1.2e-4,3.2e-4 1.6e-4,9.7e-4 3.2e-4,0.001 0.56629,1.70449 1.2084,3.11805 1.70109,4.08694 0.008,0.0168 0.0172,0.0335 0.0261,0.05 0.009,0.0173 0.015,0.0254 0.0242,0.0425 -0.10442,0.31867 -0.20478,0.62259 -0.34098,1.0745 -0.0157,0.0519 -0.0295,0.10439 -0.0415,0.15728 -0.2827,1.24741 -0.56632,3.16231 -0.3114,5.42755 l 3.2e-4,0.002 c 0.0139,0.12276 0.0489,0.2569 0.0664,0.38186 -0.55667,0.64035 -0.96383,1.28509 -1.23618,1.86088 -0.19991,0.42262 -0.34662,0.8036 -0.43439,1.2821 -0.0439,0.23925 -0.0876,0.49646 -0.034,0.92446 0.0536,0.42796 0.23868,1.31672 1.25946,1.86622 0.93815,0.50493 1.84558,0.2206 2.22576,0.039 0.1736,-0.0829 0.29255,-0.1576 0.39444,-0.22837 0.14627,0.22069 0.2632,0.44756 0.4259,0.66402 l 6.4e-4,0.001 c 0.0363,0.0482 0.0811,0.0892 0.11796,0.13683 -0.0679,0.21339 -0.15404,0.43422 -0.19502,0.63476 -0.0828,0.40515 -0.13135,0.77431 -0.0849,1.25945 0.0232,0.24258 0.0543,0.51693 0.24755,0.92887 0.19325,0.41194 0.70557,1.15477 1.71147,1.3598 0.92439,0.18837 1.64215,-0.21191 1.9631,-0.45358 0.11072,-0.0834 0.17529,-0.14985 0.24724,-0.21893 1.17752,0.75332 2.44585,1.37971 3.78717,1.88698 2.63892,1.0007 5.61132,1.65341 8.75801,1.66932 0.23396,0.001 0.4677,-9.7e-4 0.70113,-0.007 l 0.001,0 c 2.63361,-0.0685 5.14585,-0.58504 7.4328,-1.41987 1.75082,-0.63886 3.36279,-1.45431 4.81293,-2.40442 l 6.4e-4,-3.2e-4 c 0.12104,-0.0794 0.23593,-0.17237 0.35576,-0.25447 0.0987,0.12382 0.21993,0.26384 0.46773,0.45043 0.32096,0.24168 1.03872,0.64197 1.96311,0.45358 1.00614,-0.20505 1.51903,-0.94884 1.71209,-1.36105 0.19306,-0.41221 0.22386,-0.68645 0.24692,-0.92887 0.0461,-0.48483 -0.003,-0.85352 -0.0852,-1.2582 -0.0768,-0.37572 -0.20503,-0.7844 -0.38564,-1.20724 0.0881,-0.13489 0.15824,-0.27035 0.24,-0.40577 0.0608,0.0576 0.096,0.10594 0.1686,0.1686 0.1476,0.1274 0.30901,0.27797 0.68918,0.45956 0.38013,0.18158 1.28739,0.46571 2.22544,-0.039 1.0214,-0.54972 1.20639,-1.43942 1.25977,-1.86749 0.0534,-0.42806 0.01,-0.68536 -0.0343,-0.92446 -0.0879,-0.47819 -0.23463,-0.85853 -0.43439,-1.28084 -0.36139,-0.76402 -0.95366,-1.64679 -1.8398,-2.48243 0.26609,-2.18775 0.0649,-4.04756 -0.12645,-5.18786 -0.008,-0.0493 -0.0171,-0.0782 -0.0255,-0.12582 0.34512,-0.60705 0.66747,-1.29852 0.95655,-2.11315 l 0,-3.2e-4 c 0.50867,-1.43329 0.87473,-3.04279 1.11885,-4.94063 0.20186,-1.5633 0.30848,-3.2334 0.30732,-5.0221 l 0,-3.2e-4 c -3.3e-4,-0.91908 -0.0278,-1.87647 -0.0988,-2.85894 -0.0359,-0.4971 -0.0832,-0.99042 -0.14092,-1.48059 -0.056,-0.56041 -0.22313,-1.19747 -0.58349,-1.81463 -0.006,-0.0107 -0.0127,-0.0214 -0.0192,-0.0321 -0.38297,-0.63228 -0.95291,-1.1438 -1.62968,-1.45825 -0.0222,-0.0103 -0.0445,-0.0203 -0.067,-0.0299 -0.47612,-0.20319 -0.96202,-0.30289 -1.41673,-0.32336 l -3.2e-4,0 z m -1.82533,4.2763 c 0.004,4.9e-4 0.0103,0.0181 0.0148,0.0393 0.002,0.0138 0.002,0.0283 0.004,0.0421 -0.0132,-0.0451 -0.0243,-0.0822 -0.0186,-0.0815 z m 0.15759,2.02665 c 0.0291,0.57802 0.0618,1.15815 0.0679,1.72624 0.0168,1.58673 -0.047,3.0326 -0.17803,4.37602 -0.16197,1.65002 -0.38838,2.88183 -0.69327,3.96835 -0.12877,0.45885 -0.25293,0.75652 -0.37809,1.07482 -0.15118,0.16975 -0.27451,0.33607 -0.3394,0.46082 -0.18388,0.35349 -0.20806,0.54732 -0.23339,0.69169 -0.0104,0.0595 -0.002,0.0567 -0.008,0.10223 -0.0364,0.0628 -0.0779,0.142 -0.11387,0.20351 -0.0561,0.0959 -0.10923,0.17485 -0.20949,0.3891 -0.0501,0.10713 -0.12417,0.23069 -0.19565,0.58632 -0.0697,0.34666 -0.16569,1.33655 0.6744,2.15152 0.008,0.37083 0.0112,0.72283 -0.0104,1.14685 -0.49182,-0.0181 -0.95843,0.022 -1.39786,0.11953 -0.40547,0.0887 -0.84622,0.21541 -1.35225,0.59009 -0.13159,0.0921 -0.29065,0.23744 -0.46239,0.43974 -0.48866,0.52641 -0.48353,0.78886 -0.5385,1.00279 -0.0581,0.22612 -0.0819,0.39375 -0.0783,0.65489 0.002,0.16962 0.023,0.33849 0.062,0.50359 0.0603,0.25558 0.18306,0.6447 0.56399,1.05846 -0.32861,-0.009 -0.68424,0.005 -1.15597,0.1664 -0.13981,0.0429 -0.32317,0.12622 -0.5404,0.26013 -0.5675,0.31735 -0.67933,0.57031 -0.80336,0.76184 -0.13287,0.20518 -0.21363,0.36716 -0.2941,0.64137 -0.0543,0.18489 -0.0855,0.37582 -0.0928,0.56839 -0.0123,0.3269 0.0164,0.87484 0.43251,1.46297 0.086,0.12152 0.19492,0.22563 0.30637,0.32587 -0.89331,0.5016 -1.83788,0.96414 -2.87561,1.33338 -1.76218,0.62666 -3.69729,1.01402 -5.70058,1.06443 l -0.002,0 c -0.17792,0.005 -0.35517,0.007 -0.53127,0.006 l -9.7e-4,0 c -2.39561,-0.0108 -4.73914,-0.50755 -6.85278,-1.28588 -0.54149,-0.20009 -1.03792,-0.42656 -1.52116,-0.66024 0.0209,-0.0164 0.0353,-0.0278 0.0528,-0.0415 0.16773,-0.12913 0.32428,-0.27347 0.44572,-0.4454 0.41541,-0.58814 0.44353,-1.13501 0.43125,-1.4614 -0.007,-0.19245 -0.0383,-0.38327 -0.0925,-0.56808 -0.0806,-0.27468 -0.16181,-0.43645 -0.29473,-0.64168 -0.12408,-0.19157 -0.23565,-0.44455 -0.80305,-0.76184 -0.2174,-0.13401 -0.40083,-0.2175 -0.54071,-0.26044 -0.53282,-0.18266 -0.92631,-0.18401 -1.28934,-0.16829 -0.0584,0.002 -0.12104,0.0233 -0.17992,0.0277 0.0485,-0.0365 0.10797,-0.0643 0.15099,-0.10443 0.5012,-0.46805 0.62715,-0.9178 0.69452,-1.20315 0.0393,-0.16643 0.0602,-0.33668 0.0623,-0.50768 0.003,-0.25805 -0.0205,-0.42463 -0.0783,-0.65018 -0.0548,-0.21342 -0.0493,-0.47589 -0.53914,-1.00341 -0.1717,-0.20223 -0.3305,-0.3477 -0.46207,-0.43974 -0.50603,-0.37468 -0.94679,-0.50138 -1.35225,-0.5901 -0.61852,-0.13721 -1.28999,-0.163 -2.01249,-0.066 -0.003,-0.80423 0.0614,-1.52898 0.14123,-2.08924 0.008,-0.0356 0.0105,-0.054 0.0179,-0.0887 0.31566,-0.2877 0.52636,-0.6182 0.6247,-0.85998 0.1487,-0.36562 0.16263,-0.59676 0.17269,-0.76939 0.0201,-0.34525 -0.0154,-0.49238 -0.039,-0.62815 -0.0472,-0.27156 -0.0993,-0.43738 -0.1601,-0.63256 -0.12159,-0.39037 -0.28514,-0.83433 -0.49982,-1.38622 l 0.0201,0.0532 c -0.3249,-0.89937 -0.80001,-2.21469 -1.19498,-3.634 -0.32867,-1.18693 -0.63949,-2.54093 -0.66747,-3.73087 -0.0104,-0.48243 0.0277,-0.88823 0.0969,-1.14779 0.0406,-0.14619 0.0896,-0.25764 0.1145,-0.30071 0.0165,-0.0286 0.0209,-0.0286 0.002,-0.008 0.01,-0.0103 0.0192,-0.0207 0.0286,-0.0311 -0.049,0.0536 -0.0164,0.0164 0.0252,0.005 0.005,-0.001 0.009,-0.002 0.0135,-0.004 0.0544,-0.0152 0.30789,-0.043 0.65583,-0.008 0.38473,0.0416 0.84185,0.15301 1.31828,0.30637 1.1e-4,3e-5 1.6e-4,-4e-5 3.2e-4,0 0.54439,0.1761 1.09281,0.40237 1.60955,0.63822 l 3.2e-4,0 c 0.87178,0.39778 1.64659,0.82334 2.32169,1.20567 0.0435,0.15642 0.0919,0.29019 0.13117,0.37431 0.006,0.0141 0.0131,0.0282 0.0198,0.0421 0.0716,0.14598 0.22174,0.40579 0.46742,0.64609 l 3.2e-4,3.2e-4 c 0.19248,0.18817 0.36783,0.30068 0.5124,0.38029 0.31869,0.17559 0.5538,0.22803 0.74643,0.26139 0.38635,0.0677 0.55092,0.0384 0.68509,0.0264 l 0.003,-3.2e-4 c 0.28407,-0.0256 0.42528,-0.063 0.58852,-0.10066 0.30901,-0.0714 0.65514,-0.16663 1.03864,-0.26454 0.83154,-0.21221 1.86006,-0.45409 3.18136,-0.62249 0.87369,-0.11112 1.81877,-0.17932 2.82245,-0.17269 0.56878,0.004 1.1174,0.0314 1.64635,0.0783 l 6.5e-4,0 c 1.52916,0.13542 2.79991,0.43002 3.81045,0.69924 0.23679,0.19683 0.48405,0.34455 0.67849,0.41772 0.12089,0.0455 0.24535,0.0808 0.37211,0.10569 0.26866,0.0527 0.5139,0.0513 0.70616,0.0308 l 9.7e-4,-3.3e-4 c 0.11385,-0.0122 0.14198,-0.0397 0.22584,-0.0585 0.12565,0.023 0.24587,0.0519 0.53883,0.0415 0.17221,-0.006 0.40159,-0.012 0.78134,-0.15507 0.37975,-0.14309 1.00807,-0.538 1.32457,-1.24185 0.0734,-0.16318 0.12233,-0.32541 0.15444,-0.48283 0.004,-0.003 0.006,-0.005 0.0104,-0.008 0.87348,-0.71774 2.24429,-1.85136 3.65066,-2.86303 l 3.3e-4,-3.2e-4 c 0.50002,-0.35952 1.03124,-0.70751 1.55953,-1.02795 z m -25.70751,2.83849 c -0.002,0.009 4.8e-4,0.0133 -9.7e-4,0.0217 -0.002,0.012 -0.006,0.0169 -0.008,0.0293 l 0.009,-0.051 z m 14.88417,0.29033 c -9.6e-4,0.007 -0.002,0.0227 -0.003,0.0302 -4.8e-4,0.004 -0.001,0.005 -0.002,0.009 l 0.005,-0.0393 z m -14.91153,0.38878 c 8e-5,8.1e-4 1.6e-4,0.001 3.2e-4,0.002 8e-5,8.1e-4 -8e-5,0.002 0,0.003 l -3.2e-4,-0.005 z m 15.55636,1.58533 c 9.7e-4,9.7e-4 0.002,0.001 0.003,0.003 0.001,0.001 0.002,0.003 0.003,0.004 l -0.006,-0.007 z m 5.06016,15.54253 c 0.009,0.0232 0.0421,0.0716 0.0544,0.0994 -0.009,-0.0172 -0.0354,-0.0488 -0.0428,-0.0642 l -0.0117,-0.0352 z m -21.02229,0.0645 c -0.009,0.0435 -0.0851,0.1494 -0.0607,0.11355 0.0148,-0.0331 0.0505,-0.0866 0.0607,-0.11355 z m 21.45133,0.53411 c 0.003,1e-4 0.005,3.2e-4 0.003,3.2e-4 -8.1e-4,-3e-5 -0.002,-3.2e-4 -0.003,-3.2e-4 z m 0.47057,0.49667 c 0.017,-0.0155 0.0608,0.055 0.072,0.039 -0.0238,-0.0134 -0.0478,-0.0264 -0.072,-0.039 z m -23.01056,0.41835 c -0.006,0.004 -0.0115,0.008 -0.0173,0.0119 l -9.7e-4,-0.002 c 0,0 0.0156,-0.009 0.0182,-0.0101 z m 25.34326,1.86371 c 0.001,4.8e-4 0.007,0.005 0.008,0.007 -0.003,-0.002 -0.006,-0.005 -0.008,-0.007 z m -21.76998,0.45609 -0.004,0.0702 c -0.0193,0.091 -0.0525,0.20752 -0.10192,0.33657 0.0638,-0.18077 0.0951,-0.31184 0.10632,-0.40672 z m 22.36259,0.26171 c 0.002,0.002 0.006,0.0109 0.007,0.0135 -0.002,-0.005 -0.004,-0.009 -0.007,-0.0135 z m -23.1131,1.1135 c -0.01,0.008 -0.0231,0.0178 -0.0475,0.0368 -0.001,-6.5e-4 -0.003,-10e-4 -0.004,-0.002 0.017,-0.0124 0.0352,-0.0221 0.0519,-0.0349 z"
             style="fill:#ffffff;fill-opacity:1;fill-rule:evenodd;stroke:none;stroke-width:1px;stroke-linecap:butt;stroke-linejoin:miter;stroke-opacity:1" />
          <path
             sodipodi:nodetypes="sssss"
             inkscape:connector-curvature="0"
             id="path5359"
             d="m 217.16648,234.20708 c 0,8.17371 -7.55124,14.55749 -16.98114,14.55749 -9.42989,0 -17.37377,-6.64084 -16.90658,-14.55749 0.54626,-9.25642 7.64441,-14.79989 17.07434,-14.79981 9.42989,9e-5 16.81338,6.6261 16.81338,14.79981 z"
             style="opacity:1;fill:#ffd1a0;fill-opacity:1;stroke:none;stroke-width:1;stroke-linecap:round;stroke-linejoin:miter;stroke-miterlimit:10;stroke-dasharray:none;stroke-dashoffset:0;stroke-opacity:1" />
          <path
             style="fill:#ffd1a0;fill-opacity:1;fill-rule:evenodd;stroke:none;stroke-width:1px;stroke-linecap:butt;stroke-linejoin:miter;stroke-opacity:1"
             d="m 184.41997,230.87379 c 0,0 -5.4666,-11.86651 -1.19998,-13.73315 4.26661,-1.86664 11.86651,5.0666 11.86651,5.0666 z"
             id="path5367"
             inkscape:connector-curvature="0" />
          <path
             style="fill:#ffd1a0;fill-opacity:1;fill-rule:evenodd;stroke:none;stroke-width:1px;stroke-linecap:butt;stroke-linejoin:miter;stroke-opacity:1"
             d="m 207.21967,221.67391 c 0,0 11.59985,-13.06649 11.99985,-3.59995 0.39999,9.46654 -5.19324,18.15228 -5.19324,18.15228 l -6.93994,-14.019 z"
             id="path5369"
             inkscape:connector-curvature="0"
             sodipodi:nodetypes="csccc" />
          <path
             inkscape:connector-curvature="0"
             style="opacity:1;fill:#ffb245;fill-opacity:1;stroke:none;stroke-width:11;stroke-linecap:round;stroke-linejoin:round;stroke-miterlimit:4;stroke-dasharray:none;stroke-dashoffset:0;stroke-opacity:1"
             d="m 186.56758,235.39312 c -0.30011,0.004 -0.60379,0.0806 -0.88526,0.23771 l -2.27408,1.2695 a 16.999779,14.799806 0 0 0 1.28641,3.54701 l 2.80277,-1.56482 c 0.90071,-0.50283 1.22101,-1.6328 0.71818,-2.53351 -0.3457,-0.61924 -0.98778,-0.96419 -1.64802,-0.95589 z"
             id="path5372" />
          <path
             inkscape:connector-curvature="0"
             style="opacity:1;fill:#ffb245;fill-opacity:1;stroke:none;stroke-width:11;stroke-linecap:round;stroke-linejoin:round;stroke-miterlimit:4;stroke-dasharray:none;stroke-dashoffset:0;stroke-opacity:1"
             d="m 189.34346,239.36183 c -0.35814,0.0121 -0.71696,0.12796 -1.03018,0.35497 l -2.93786,2.1294 a 16.999779,14.799806 0 0 0 2.42471,2.84208 l 2.69877,-1.95613 c 0.83525,-0.60538 1.02024,-1.76524 0.41486,-2.60049 -0.37836,-0.52202 -0.97339,-0.79 -1.5703,-0.76983 z"
             id="path5374" />
          <path
             id="path5379"
             d="m 211.1784,239.09823 c 0.35814,0.0121 0.71696,0.12795 1.03018,0.35497 l 2.93785,2.12939 a 16.999779,14.799806 0 0 1 -2.42471,2.84209 l -2.69876,-1.95614 c -0.83525,-0.60538 -1.02025,-1.76523 -0.41487,-2.60048 0.37837,-0.52202 0.9734,-0.79001 1.57031,-0.76983 z"
             style="opacity:1;fill:#ffb245;fill-opacity:1;stroke:none;stroke-width:11;stroke-linecap:round;stroke-linejoin:round;stroke-miterlimit:4;stroke-dasharray:none;stroke-dashoffset:0;stroke-opacity:1"
             inkscape:connector-curvature="0" />
          <path
             inkscape:connector-curvature="0"
             id="path5394"
             d="m 207.48612,221.29166 c -0.002,-0.002 -0.004,-0.005 -0.005,-0.008 -8.1e-4,-0.003 -8.1e-4,-0.007 -1.6e-4,-0.0118 0,0 0,0 0,0 10e-4,-0.009 0.005,-0.0205 0.0111,-0.0344 l 0,0 0,0 c 0.0123,-0.0275 0.0344,-0.0643 0.0661,-0.11013 l 0,0 c 0.0623,-0.0899 0.16096,-0.2138 0.29503,-0.36915 l 0,0 c 0.25518,-0.29568 0.6383,-0.70537 1.13722,-1.20223 l 0,0 c 0.82991,-0.82663 2.11363,-2.03291 3.63008,-3.21433 l 0,0 c 0.60486,-0.47143 1.2845,-0.96858 2.02212,-1.42209 l 0,0 0,0 0,0 c 0.55168,-0.34156 1.17682,-0.68751 1.87698,-0.91287 l 0,0 c 0.25791,-0.0839 0.5434,-0.14915 0.85165,-0.165 l 0,0 c 0.24742,-0.0158 0.52249,0.0195 0.79734,0.13681 l 0,0 c 0.26102,0.12127 0.47439,0.31414 0.61868,0.55236 0,0 0,0 0,0 l 0,0 c 0.16899,0.28943 0.25038,0.59245 0.27828,0.87481 0.0554,0.46536 0.1,0.93641 0.13444,1.41363 0.0662,0.91719 0.0925,1.81947 0.0929,2.69257 0.001,1.69548 -0.10008,3.26496 -0.28832,4.7228 -0.22788,1.77207 -0.56072,3.21157 -1.00387,4.46018 -0.26537,0.74786 -0.54777,1.34806 -0.83755,1.84279 -0.58505,1.00036 -1.11148,1.38859 -1.15781,1.34667 -0.061,-0.0552 0.34079,-0.53986 0.78541,-1.53833 0.22446,-0.50505 0.43911,-1.08966 0.64693,-1.83018 0.3484,-1.24159 0.59705,-2.62193 0.76874,-4.37171 0.13968,-1.43171 0.20662,-2.96265 0.18902,-4.62721 -0.009,-0.85674 -0.0394,-1.73925 -0.10373,-2.63204 -0.0335,-0.46473 -0.0756,-0.92244 -0.12712,-1.37405 -0.0291,-0.2059 -0.0664,-0.38704 -0.14873,-0.51196 0,0 0,0 0,0 -0.0552,-0.0906 -0.1345,-0.16781 -0.2191,-0.20398 -0.0962,-0.0517 -0.23652,-0.0636 -0.39073,-0.0637 l 0,0 c -0.19802,0.004 -0.40936,0.0525 -0.62625,0.11561 l 0,0 c -0.59299,0.17511 -1.16603,0.48194 -1.7064,0.79327 0,0 0,0 0,0 -0.71094,0.41254 -1.38533,0.87478 -1.99487,1.31305 l 0,0 c -1.49247,1.07357 -2.90428,2.24356 -3.76964,2.95463 l 0,0 c -0.54128,0.44483 -0.97007,0.7978 -1.27793,1.0374 l 0,0 c -0.16089,0.12522 -0.28852,0.21932 -0.37972,0.27824 l 0,0 c -0.0466,0.0301 -0.0839,0.0512 -0.11159,0.0628 l 0,0 0,0 c -0.014,0.006 -0.0255,0.009 -0.0346,0.0103 0,0 0,0 0,0 -0.005,4.9e-4 -0.008,3.3e-4 -0.0117,-3.2e-4 -0.003,-0.001 -0.006,-0.003 -0.008,-0.005 z"
             style="fill:#f2a060;fill-opacity:1;fill-rule:evenodd;stroke:none;stroke-width:1px;stroke-linecap:butt;stroke-linejoin:miter;stroke-opacity:1" />
          <path
             inkscape:connector-curvature="0"
             id="path5398"
             d="m 183.91382,230.41475 c 0.0562,0.0145 -0.0664,0.70964 -0.33673,1.95707 -0.1525,1.05908 -0.30059,2.68487 -0.0214,4.50571 0.12775,0.83868 0.35059,1.74345 0.7167,2.64987 0.35841,0.88809 0.85872,1.78495 1.51949,2.62582 0.69343,0.88358 1.55772,1.6956 2.57231,2.40733 1.14867,0.80614 2.45716,1.46058 3.89787,1.99274 2.3344,0.85962 4.9389,1.41708 7.64736,1.42932 0.20154,9.6e-4 0.40259,-0.001 0.60308,-0.006 2.26469,-0.057 4.43983,-0.49337 6.42301,-1.19866 1.52651,-0.54316 2.92879,-1.23313 4.18755,-2.03219 0.38607,-0.24491 0.75478,-0.49715 1.10501,-0.76285 0.1419,-0.11163 0.28288,-0.22251 0.42289,-0.3326 -3.2e-4,8e-4 -9.6e-4,8e-4 -9.6e-4,6.4e-4 9.6e-4,-0.001 0.008,-0.006 0.0204,-0.0136 0.005,-0.003 0.0139,-0.009 0.0277,-0.0184 0.0503,-0.0348 0.10191,-0.0746 0.15564,-0.1172 0.20382,-0.16189 0.3971,-0.3408 0.58256,-0.52672 0.69444,-0.69641 1.2511,-1.48608 1.69049,-2.27793 0.76633,-1.38106 1.18046,-2.81471 1.39323,-4.06971 0.3106,-1.82871 0.22742,-3.49179 0.14905,-4.49112 -0.0831,-1.06007 -0.17753,-1.63423 -0.11619,-1.64663 0.0417,-0.008 0.23664,0.5455 0.41527,1.60978 0.16983,1.01191 0.35087,2.68753 0.10451,4.61005 -0.16877,1.31388 -0.55459,2.82885 -1.33015,4.31836 -0.44359,0.85203 -1.02063,1.70942 -1.75898,2.48123 -0.19647,0.20546 -0.40798,0.40813 -0.63816,0.59846 -0.0596,0.0494 -0.12355,0.10018 -0.19286,0.15042 -0.0163,0.012 -0.0376,0.0269 -0.0641,0.044 0.005,-0.003 0.004,-0.003 -0.003,2e-5 -0.002,6.4e-4 -0.004,0.002 -0.007,0.003 -0.11897,0.0995 -0.2378,0.19968 -0.35724,0.30037 -0.36889,0.28954 -0.75473,0.56299 -1.15577,0.82588 -1.29931,0.85129 -2.75116,1.58698 -4.33488,2.16483 -2.0609,0.75231 -4.32757,1.21769 -6.69482,1.27925 -0.20965,0.005 -0.4198,0.007 -0.63038,0.006 -2.83136,-0.0143 -5.53554,-0.6047 -7.94554,-1.51883 -1.49443,-0.56517 -2.86086,-1.27213 -4.06521,-2.14239 -1.06513,-0.76995 -1.96947,-1.65369 -2.69212,-2.61392 -0.68787,-0.91515 -1.19681,-1.8842 -1.55078,-2.83859 -0.36081,-0.97369 -0.56386,-1.93281 -0.6639,-2.81473 -0.21665,-1.92518 0.0264,-3.58423 0.26842,-4.65214 0.37156,-1.23286 0.60161,-1.9004 0.65781,-1.88586 z"
             style="fill:#f2a060;fill-opacity:1;fill-rule:evenodd;stroke:none;stroke-width:1px;stroke-linecap:butt;stroke-linejoin:miter;stroke-opacity:1" />
          <path
             style="opacity:1;fill:#ffb245;fill-opacity:1;stroke:none;stroke-width:11;stroke-linecap:round;stroke-linejoin:round;stroke-miterlimit:4;stroke-dasharray:none;stroke-dashoffset:0;stroke-opacity:1"
             d="m 197.05412,219.68434 c -1.2412,0.21519 -2.45092,0.55038 -3.60667,0.99932 l 0.54511,2.78767 c 0.17568,1.0165 1.27672,2.61264 2.29321,2.43696 0.69884,-0.12078 1.23735,-0.6121 1.44848,-1.23773 0.096,-0.28437 -0.0173,-1.51563 -0.0722,-1.83329 z"
             id="path5400"
             inkscape:connector-curvature="0"
             sodipodi:nodetypes="cccsccc" />
          <path
             style="opacity:1;fill:#ffb245;fill-opacity:1;stroke:none;stroke-width:1;stroke-linecap:round;stroke-linejoin:miter;stroke-miterlimit:10;stroke-dasharray:none;stroke-dashoffset:0;stroke-opacity:1"
             d="m 204.12064,219.74809 -0.4096,2.67454 c -0.15621,1.01967 0.0221,2.46633 1.04175,2.62253 0.70102,0.10739 1.59255,-0.1624 1.99142,-0.68861 0.1813,-0.23918 0.49926,-0.83448 0.64778,-1.3698 0.14852,-0.53531 0.30617,-1.43987 0.3328,-2.17282 -1.15176,-0.47162 -2.36072,-0.82914 -3.60415,-1.06584 z"
             id="path5402"
             inkscape:connector-curvature="0"
             sodipodi:nodetypes="ccsczcc" />
          <path
             style="opacity:1;fill:#ffb245;fill-opacity:1;stroke:none;stroke-width:1;stroke-linecap:round;stroke-linejoin:miter;stroke-miterlimit:10;stroke-dasharray:none;stroke-dashoffset:0;stroke-opacity:1"
             d="m 200.353,219.40729 c -0.58273,0.005 -1.16476,0.0368 -1.74379,0.0942 l 0.16183,2.49443 c 0.0667,1.0294 0.71366,2.95928 1.74307,2.89254 0.70771,-0.0459 1.2953,-0.47737 1.57167,-1.07704 0.27293,-0.50828 0.49321,-1.31614 0.40164,-2.05619 l -0.14491,-2.23568 c -0.66008,-0.0713 -1.32439,-0.10874 -1.98951,-0.11223 z"
             id="path5405"
             inkscape:connector-curvature="0"
             sodipodi:nodetypes="cccscccc" />
          <circle
             style="opacity:1;fill:#aa4400;fill-opacity:1;stroke:none;stroke-width:8;stroke-linecap:round;stroke-linejoin:round;stroke-miterlimit:4;stroke-dasharray:none;stroke-dashoffset:0;stroke-opacity:1"
             id="circle5407"
             cx="192.2032"
             cy="232.24576"
             r="2.5333002" />
          <circle
             r="2.5333002"
             cy="232.24576"
             cx="208.50299"
             id="circle5409"
             style="opacity:1;fill:#aa4400;fill-opacity:1;stroke:none;stroke-width:8;stroke-linecap:round;stroke-linejoin:round;stroke-miterlimit:4;stroke-dasharray:none;stroke-dashoffset:0;stroke-opacity:1" />
          <path
             sodipodi:nodetypes="cscc"
             inkscape:connector-curvature="0"
             id="path5411"
             d="m 215.07888,226.27668 c 0.24578,-0.30356 -1.85274,-3.92435 -3.06477,-3.54982 -0.92895,0.28706 3.51082,-0.22503 3.32595,-3.07794 2.92204,1.46548 0.38078,6.86986 -0.26118,6.62776 z"
             style="fill:#ffaaaa;fill-rule:evenodd;stroke:none;stroke-width:1px;stroke-linecap:butt;stroke-linejoin:miter;stroke-opacity:1" />
          <path
             style="fill:#ffaaaa;fill-rule:evenodd;stroke:none;stroke-width:1px;stroke-linecap:butt;stroke-linejoin:miter;stroke-opacity:1"
             d="m 186.16343,226.63382 c -0.0653,-0.66906 2.56828,-4.14132 3.17412,-3.43014 0.67842,-0.69648 -4.01036,-0.13457 -4.19697,-2.98737 -2.70735,1.83198 0.41769,6.7408 1.02285,6.41751 z"
             id="path5413"
             inkscape:connector-curvature="0"
             sodipodi:nodetypes="cccc" />
          <circle
             style="opacity:1;fill:#ffffff;fill-opacity:1;stroke:none;stroke-width:5;stroke-linecap:round;stroke-linejoin:miter;stroke-miterlimit:4;stroke-dasharray:none;stroke-dashoffset:0;stroke-opacity:1"
             id="circle5415"
             cx="192.95319"
             cy="231.70712"
             r="1.4333147" />
          <circle
             r="1.4333147"
             cy="231.70712"
             cx="209.25298"
             id="circle5417"
             style="opacity:1;fill:#ffffff;fill-opacity:1;stroke:none;stroke-width:5;stroke-linecap:round;stroke-linejoin:miter;stroke-miterlimit:4;stroke-dasharray:none;stroke-dashoffset:0;stroke-opacity:1" />
          <ellipse
             style="opacity:1;fill:#ffaaaa;fill-opacity:1;stroke:none;stroke-width:5;stroke-linecap:round;stroke-linejoin:miter;stroke-miterlimit:4;stroke-dasharray:none;stroke-dashoffset:0;stroke-opacity:1"
             id="ellipse5419"
             cx="192.2032"
             cy="236.35454"
             rx="1.7333108"
             ry="0.58081311" />
          <ellipse
             ry="0.58081311"
             rx="1.7333108"
             cy="236.35454"
             cx="208.84357"
             id="ellipse5421"
             style="opacity:1;fill:#ffaaaa;fill-opacity:1;stroke:none;stroke-width:5;stroke-linecap:round;stroke-linejoin:miter;stroke-miterlimit:4;stroke-dasharray:none;stroke-dashoffset:0;stroke-opacity:1" />
          <path
             inkscape:connector-curvature="0"
             id="path5423"
             d="m 192.58272,221.10115 c -0.001,-0.003 -0.002,-0.005 -0.002,-0.009 -3.3e-4,-0.003 -1.6e-4,-0.006 4.8e-4,-0.01 0,0 0,0 0,0 0.001,-0.007 0.004,-0.0146 0.009,-0.0231 0,0 0,0 0,0 l 0,0 c 0.01,-0.0171 0.0267,-0.0373 0.0507,-0.0604 l 0,0 0,0 c 0.0482,-0.0464 0.12414,-0.10352 0.22772,-0.16987 l 0,0 c 0.20806,-0.13326 0.51759,-0.29741 0.92951,-0.47608 0.83176,-0.36083 2.01694,-0.75514 3.50202,-1.01375 l 0,0 c 0.99457,-0.17339 2.09049,-0.27817 3.25883,-0.27037 0.66276,0.004 1.30357,0.0448 1.91825,0.11501 0,0 0,0 0,0 1.8521,0.21185 3.37651,0.68908 4.44013,1.13616 1.05668,0.44415 1.62089,0.83601 1.58175,0.92305 -0.0462,0.10271 -0.68768,-0.1113 -1.7615,-0.40125 -1.08972,-0.29425 -2.5675,-0.64535 -4.34738,-0.80298 0,0 0,0 0,0 -0.58998,-0.0524 -1.20261,-0.083 -1.83711,-0.0872 -1.11883,-0.007 -2.16764,0.0684 -3.13155,0.191 l 0,0 c -1.4512,0.18491 -2.59566,0.45488 -3.46348,0.67636 -0.40182,0.10257 -0.77312,0.2025 -0.98716,0.25196 l 0,0 c -0.11641,0.0269 -0.20912,0.0447 -0.27373,0.0505 l 0,0 0,0 c -0.0326,0.003 -0.0586,0.003 -0.0776,-4.9e-4 l 0,0 c 0,0 0,0 0,0 -0.01,-0.002 -0.0174,-0.004 -0.0235,-0.007 0,0 0,0 0,0 -0.003,-0.002 -0.006,-0.004 -0.008,-0.006 -0.002,-0.002 -0.004,-0.005 -0.005,-0.007 z"
             style="fill:#f2a060;fill-opacity:1;fill-rule:evenodd;stroke:#ff5555;stroke-width:0;stroke-linecap:butt;stroke-linejoin:miter;stroke-miterlimit:4;stroke-dasharray:none;stroke-opacity:1" />
          <path
             inkscape:connector-curvature="0"
             id="path5425"
             d="m 193.70323,220.86861 c -0.0483,0.0679 -0.58382,-0.21645 -1.48173,-0.77088 -0.75124,-0.43516 -1.92482,-1.11356 -3.23545,-1.71157 -0.57022,-0.26026 -1.20049,-0.52216 -1.86325,-0.73637 0,0 0,0 0,0 -0.56676,-0.18246 -1.1738,-0.34045 -1.79067,-0.40627 -0.51275,-0.0524 -1.04246,-0.0528 -1.52417,0.0818 -0.42532,0.11607 -0.83319,0.34464 -1.13205,0.67207 -0.12432,0.13132 -0.23303,0.2811 -0.32761,0.44489 -0.15209,0.26341 -0.26488,0.55829 -0.34694,0.85961 -0.1555,0.58023 -0.18904,1.20086 -0.17587,1.80604 0.0356,1.53032 0.40637,3.05504 0.75113,4.30006 0.42458,1.52634 0.92482,2.90643 1.24905,3.80394 0.40891,1.0512 0.60626,1.67137 0.52787,1.7076 -0.0784,0.0362 -0.42292,-0.51613 -0.9609,-1.51375 -0.44748,-0.88002 -1.04637,-2.19856 -1.56769,-3.76829 -0.41945,-1.25751 -0.85255,-2.82777 -0.92575,-4.49809 -0.0298,-0.66078 0.005,-1.36959 0.18434,-2.0762 0.0936,-0.37412 0.23846,-0.74883 0.44455,-1.09941 0.12808,-0.21787 0.27823,-0.42374 0.45154,-0.61294 0.44059,-0.4689 1.00234,-0.78212 1.58991,-0.93235 0.64376,-0.16124 1.28649,-0.15689 1.87148,-0.0767 0.70318,0.0936 1.36321,0.2839 1.95922,0.50146 0,0 0,0 0,0 0.6993,0.25437 1.34577,0.55662 1.92147,0.85794 1.34468,0.70389 2.44602,1.4701 3.1608,2.01816 0.82405,0.66906 1.269,1.0813 1.22072,1.14925 z"
             style="fill:#f2a060;fill-opacity:1;fill-rule:evenodd;stroke:none;stroke-width:1px;stroke-linecap:butt;stroke-linejoin:miter;stroke-opacity:1" />
          <path
             inkscape:connector-curvature="0"
             id="path5427"
             d="m 187.7898,237.57174 c -0.006,-0.007 -0.0268,-0.0496 -0.0462,-0.009 -0.002,0.0125 -0.006,0.0359 -0.01,0.0361 -0.0124,0.006 -0.0474,0.0329 -0.0872,0.0362 0.003,-6.4e-4 -0.32841,0.0722 -0.41032,0.0875 -0.40476,0.0821 -0.84338,0.18504 -1.46476,0.42774 -0.46761,0.18448 -0.95458,0.43193 -1.45218,0.76492 -0.1711,0.1145 -0.3347,0.23328 -0.49066,0.35448 0,0 0,0 0,0 -0.69574,0.5387 -1.24376,1.14231 -1.64161,1.57123 -0.40192,0.43331 -0.66786,0.70438 -0.78871,0.63934 -0.11119,-0.0598 -0.0616,-0.45 0.21072,-1.02579 0.27027,-0.57137 0.76852,-1.32857 1.55291,-2.00026 0,0 0,0 0,0 0.1749,-0.14929 0.36291,-0.29249 0.56361,-0.42668 0.58264,-0.38956 1.18574,-0.64559 1.75789,-0.78949 0.72244,-0.18325 1.3333,-0.17224 1.7662,-0.0758 0.20876,0.0456 0.3664,0.10908 0.47271,0.18867 0.0443,0.0313 0.0882,0.0719 0.11082,0.11661 0.013,0.0132 0.0211,0.0493 0.0207,0.0764 -0.0176,0.0747 -0.0627,0.0299 -0.064,0.0282 z"
             style="fill:#724a2f;fill-opacity:1;fill-rule:evenodd;stroke:none;stroke-width:1px;stroke-linecap:butt;stroke-linejoin:miter;stroke-opacity:1" />
          <path
             inkscape:connector-curvature="0"
             id="path5429"
             d="m 210.66656,241.58201 c 0.006,-0.004 0.034,-0.0312 0.0411,0.002 -8e-4,0.01 -0.003,0.0277 1e-4,0.0286 0.009,0.007 0.0325,0.0338 0.0653,0.0442 -0.002,-0.001 0.26049,0.11905 0.3261,0.14671 0.32265,0.14162 0.66907,0.30542 1.13768,0.60895 0.35223,0.22978 0.70639,0.50991 1.04993,0.8553 0.11813,0.11876 0.22895,0.23918 0.33277,0.35986 0,0 0,0 0,0 0.46361,0.53688 0.78776,1.09209 1.02521,1.48831 0.23988,0.40028 0.40218,0.65359 0.519,0.62978 0.10749,-0.0219 0.15496,-0.31979 0.057,-0.79928 -0.0972,-0.47581 -0.34426,-1.13441 -0.85222,-1.7872 0,0 0,0 0,0 -0.11337,-0.1452 -0.23919,-0.28853 -0.37778,-0.42775 -0.40233,-0.40417 -0.85248,-0.71388 -1.30217,-0.93463 -0.56747,-0.27989 -1.08527,-0.39406 -1.4725,-0.40955 -0.18653,-0.008 -0.33404,0.007 -0.44192,0.0446 -0.0445,0.0143 -0.0909,0.0354 -0.12016,0.0639 -0.014,0.007 -0.0291,0.0321 -0.035,0.0522 -0.002,0.0586 0.046,0.0346 0.0476,0.0337 z"
             style="fill:#724a2f;fill-opacity:1;fill-rule:evenodd;stroke:none;stroke-width:1px;stroke-linecap:butt;stroke-linejoin:miter;stroke-opacity:1" />
          <path
             style="fill:#724a2f;fill-opacity:1;fill-rule:evenodd;stroke:none;stroke-width:1px;stroke-linecap:butt;stroke-linejoin:miter;stroke-opacity:1"
             d="m 190.10034,241.88025 c -0.006,-0.004 -0.034,-0.0312 -0.0411,0.002 8.1e-4,0.01 0.003,0.0277 -10e-5,0.0286 -0.009,0.007 -0.0325,0.0338 -0.0653,0.0442 0.002,-0.001 -0.26049,0.11905 -0.3261,0.14671 -0.32264,0.14162 -0.66906,0.30543 -1.13768,0.60896 -0.35223,0.22978 -0.70638,0.5099 -1.04993,0.85529 -0.11813,0.11876 -0.22894,0.23918 -0.33276,0.35986 0,0 0,0 0,0 -0.46362,0.53689 -0.78776,1.0921 -1.02521,1.48831 -0.23989,0.40028 -0.40218,0.65359 -0.519,0.62978 -0.10749,-0.0219 -0.15497,-0.31979 -0.057,-0.79928 0.0972,-0.47581 0.34425,-1.13441 0.85221,-1.78719 0,0 0,0 0,0 0.11337,-0.1452 0.23919,-0.28854 0.37778,-0.42776 0.40234,-0.40417 0.85248,-0.71387 1.30218,-0.93463 0.56747,-0.27989 1.08526,-0.39406 1.4725,-0.40955 0.18652,-0.008 0.33403,0.007 0.44192,0.0446 0.0445,0.0143 0.0908,0.0354 0.12016,0.0639 0.0139,0.007 0.029,0.0321 0.0349,0.0522 0.002,0.0586 -0.046,0.0346 -0.0476,0.0337 z"
             id="path5431"
             inkscape:connector-curvature="0" />
          <path
             inkscape:connector-curvature="0"
             id="path5433"
             d="m 186.29094,227.1586 c -0.003,0.003 -0.007,0.006 -0.0113,0.009 -0.004,0.003 -0.008,0.005 -0.0125,0.007 -0.009,0.004 -0.0188,0.007 -0.0298,0.009 0,0 0,0 0,0 l 0,0 c -0.0219,0.003 -0.0479,0.002 -0.0779,-0.004 l 0,0 c -0.0592,-0.0122 -0.13299,-0.0429 -0.21949,-0.0917 l 0,0 c -0.1681,-0.0949 -0.38272,-0.25841 -0.62282,-0.49016 l 0,0 c -0.44031,-0.42394 -0.9905,-1.10143 -1.40738,-2.00336 -0.1868,-0.39821 -0.34289,-0.84748 -0.43416,-1.33388 -0.1032,-0.54994 -0.11295,-1.09138 -0.0325,-1.60543 0.10212,-0.61538 0.33563,-1.13675 0.60861,-1.54084 0.68674,-1.00854 1.43077,-1.21221 1.51966,-1.1099 0.1523,0.17532 -0.3326,0.66629 -0.69054,1.56417 -0.14329,0.35549 -0.2602,0.77418 -0.29528,1.23252 -0.0345,0.38574 -0.007,0.79389 0.0795,1.23123 0.0759,0.38463 0.19125,0.76245 0.31801,1.11242 0.2903,0.78395 0.68128,1.49652 0.94158,1.99187 l 0,0 c 0.14442,0.27409 0.26152,0.50319 0.32915,0.67354 l 0,0 c 0.035,0.0881 0.0572,0.16217 0.0645,0.22019 l 0,0 c 0.004,0.0294 0.003,0.055 -9.7e-4,0.0764 l 0,0 c 0,0 0,0 0,0 -0.002,0.0108 -0.005,0.0206 -0.01,0.0292 -0.002,0.004 -0.005,0.008 -0.007,0.0123 -0.003,0.004 -0.006,0.008 -0.009,0.0111 z"
             style="fill:#ff9b4b;fill-opacity:1;fill-rule:evenodd;stroke:none;stroke-width:1px;stroke-linecap:butt;stroke-linejoin:miter;stroke-opacity:1" />
          <path
             inkscape:connector-curvature="0"
             id="path5435"
             d="m 186.22037,227.17392 c -0.10992,-0.0224 -0.16123,-0.28531 -0.15658,-0.70988 0,0 0,0 0,0 0.0227,-0.39553 0.1273,-0.94541 0.3822,-1.53281 0.0952,-0.22277 0.21555,-0.45258 0.36644,-0.67657 0.22474,-0.33363 0.49044,-0.61444 0.78602,-0.83418 0.30578,-0.22464 0.626,-0.35749 0.91801,-0.41941 0.69454,-0.1436 1.06578,0.0996 1.05951,0.20461 -0.009,0.15427 -0.38503,0.20197 -0.83528,0.44947 -0.19416,0.10491 -0.39546,0.24495 -0.5962,0.43401 -0.20044,0.18539 -0.38299,0.40894 -0.56241,0.67996 -0.11937,0.1803 -0.22929,0.36949 -0.32964,0.55169 -0.25226,0.46439 -0.46015,0.95124 -0.61335,1.27336 0,0 0,0 0,0 -0.15889,0.38069 -0.30893,0.60206 -0.41872,0.57975 z"
             style="fill:#ff9b4b;fill-opacity:1;fill-rule:evenodd;stroke:none;stroke-width:1px;stroke-linecap:butt;stroke-linejoin:miter;stroke-opacity:1" />
          <path
             inkscape:connector-curvature="0"
             id="path5437"
             d="m 214.8708,226.51519 c -0.006,-0.008 -0.0105,-0.0163 -0.0146,-0.0252 -0.003,-0.009 -0.006,-0.0189 -0.007,-0.0294 0,0 0,0 0,0 -0.002,-0.0208 -9.6e-4,-0.0446 0.004,-0.0709 l 0,0 0,0 c 0.01,-0.0514 0.0338,-0.1141 0.0692,-0.18633 l 0,0 c 0.0678,-0.13832 0.18089,-0.32029 0.31471,-0.53593 l 0,0 c 0.24202,-0.39218 0.58641,-0.94966 0.8034,-1.58902 l 0,0 c 0,0 0,0 0,0 0.14909,-0.43407 0.24095,-0.9274 0.23602,-1.44781 -0.002,-0.23257 -0.0237,-0.45869 -0.0626,-0.67555 0,0 0,0 0,0 -0.14057,-0.87837 -0.57828,-1.70075 -0.86609,-2.25722 -0.30174,-0.5834 -0.48954,-0.96614 -0.36643,-1.08409 0.10998,-0.10537 0.52391,0.0616 1.0516,0.55757 0.51295,0.48216 1.17323,1.33235 1.46333,2.51673 0,0 0,0 0,0 0.0684,0.29804 0.10632,0.60982 0.10949,0.92961 0.007,0.71785 -0.1611,1.38186 -0.43157,1.94002 0,0 0,0 0,0 l 0,0 c -0.39397,0.80389 -0.94355,1.34511 -1.37413,1.65077 l 0,0 c -0.23556,0.16791 -0.44445,0.27307 -0.60451,0.32318 l 0,0 c -0.0831,0.026 -0.15299,0.0375 -0.20797,0.0349 l 0,0 0,0 c -0.0277,-0.001 -0.0515,-0.006 -0.0712,-0.0146 0,0 0,0 0,0 -0.01,-0.004 -0.0188,-0.009 -0.0265,-0.0152 -0.007,-0.007 -0.014,-0.0137 -0.0197,-0.0216 z"
             style="fill:#ff9b4b;fill-opacity:1;fill-rule:evenodd;stroke:none;stroke-width:1px;stroke-linecap:butt;stroke-linejoin:miter;stroke-opacity:1" />
          <path
             inkscape:connector-curvature="0"
             id="path5439"
             d="m 215.0783,226.49178 c -0.17283,0.13695 -0.76141,-0.50948 -1.40992,-1.50647 0,0 0,0 0,0 -0.16196,-0.20221 -0.33477,-0.4144 -0.51609,-0.62462 -0.21035,-0.24387 -0.40887,-0.45813 -0.6078,-0.65671 0,0 0,0 0,0 -0.39606,-0.39504 -0.6624,-0.61322 -0.94073,-0.84683 -0.24293,-0.2039 -0.4028,-0.3482 -0.37986,-0.46576 0.0218,-0.11163 0.2286,-0.18284 0.57349,-0.12521 0.34893,0.0583 0.80198,0.24562 1.27482,0.61696 0,0 0,0 0,0 0.25624,0.2015 0.50932,0.44423 0.75201,0.72702 0.21137,0.24629 0.39618,0.50119 0.55503,0.75095 0,0 0,0 0,0 0.57257,1.10962 0.87217,1.9935 0.69905,2.13067 z"
             style="fill:#ff9b4b;fill-opacity:1;fill-rule:evenodd;stroke:none;stroke-width:1px;stroke-linecap:butt;stroke-linejoin:miter;stroke-opacity:1" />
          <path
             inkscape:connector-curvature="0"
             id="path5441"
             d="m 196.48761,236.93432 c 0.0113,0.008 0.0244,0.24906 0.0666,0.55923 0.0385,0.20127 0.11141,0.44036 0.25553,0.69918 0.12294,0.21769 0.30192,0.44588 0.54098,0.61604 0.23486,0.17177 0.54087,0.28763 0.8886,0.33055 0,0 1e-5,0 1e-5,0 0.2653,0.0272 0.55485,-0.004 0.77629,-0.13437 0.19548,-0.10211 0.36962,-0.28316 0.52861,-0.50448 0.26066,-0.35741 0.42198,-0.80897 0.56374,-1.32441 0.15913,-0.15728 0.31922,-0.31474 0.48145,-0.47419 0.0174,-0.0171 0.0348,-0.0342 0.0522,-0.0513 0.23234,0.1545 0.46055,0.30644 0.68692,0.45849 0.2509,0.45003 0.47302,0.84308 0.75064,1.17593 0.17029,0.20565 0.33885,0.38011 0.52324,0.50568 0.18304,0.12268 0.36993,0.20636 0.54573,0.21913 0.33699,0.0293 0.6586,-0.0327 0.91648,-0.16421 0.26835,-0.13397 0.48116,-0.33602 0.62767,-0.54532 0.16903,-0.24874 0.25258,-0.47891 0.27313,-0.68791 0.0407,-0.4161 -0.15662,-0.61238 -0.10658,-0.67807 -0.009,0.0116 0.43682,-0.0401 0.54102,0.65584 0.0455,0.28759 0.0103,0.648 -0.16807,1.01449 -0.15203,0.31993 -0.40726,0.64707 -0.78171,0.89304 -0.36996,0.23963 -0.83494,0.38576 -1.34041,0.37757 -0.35941,-0.011 -0.70652,-0.12213 -1.00657,-0.31145 -0.29018,-0.18096 -0.54003,-0.40737 -0.75628,-0.657 -0.36585,-0.42507 -0.64752,-0.88863 -0.91419,-1.36858 0.0792,-0.21126 0.15968,-0.42278 0.2419,-0.63874 0.0134,0.0152 0.0267,0.0304 0.0401,0.0456 0.12482,0.14178 0.24768,0.2813 0.36994,0.42099 -0.15597,0.60328 -0.38944,1.18753 -0.76164,1.70055 -0.23117,0.31532 -0.53411,0.58173 -0.8957,0.75901 -0.45088,0.20694 -0.92114,0.23085 -1.32718,0.1455 0,0 0,0 0,0 -0.48322,-0.0962 -0.90021,-0.31736 -1.2153,-0.60731 -0.31212,-0.29265 -0.50206,-0.63349 -0.60613,-0.94174 -0.12136,-0.35563 -0.13679,-0.67648 -0.1071,-0.92123 0.0387,-0.46155 0.26866,-0.60064 0.31613,-0.5665 z"
             style="fill:#c4824e;fill-opacity:1;fill-rule:nonzero;stroke:none;stroke-width:1px;stroke-linecap:butt;stroke-linejoin:miter;stroke-opacity:1" />
          <path
             style="fill:#724a2f;fill-opacity:1;fill-rule:evenodd;stroke:none;stroke-width:1px;stroke-linecap:butt;stroke-linejoin:miter;stroke-opacity:1"
             d="m 212.94509,237.49719 c 0.006,-0.007 0.0268,-0.0496 0.0462,-0.009 0.002,0.0125 0.006,0.036 0.01,0.0361 0.0124,0.006 0.0474,0.0329 0.0872,0.0362 -0.003,-6.5e-4 0.3284,0.0722 0.41032,0.0875 0.40476,0.0821 0.84337,0.18504 1.46475,0.42774 0.46762,0.18448 0.95458,0.43193 1.45219,0.76492 0.1711,0.1145 0.33469,0.23328 0.49065,0.35448 0,0 0,0 0,0 0.69575,0.53871 1.24377,1.14231 1.64162,1.57123 0.40192,0.43331 0.66786,0.70439 0.78871,0.63934 0.11119,-0.0598 0.0616,-0.45 -0.21072,-1.02579 -0.27027,-0.57137 -0.76852,-1.32856 -1.55292,-2.00025 0,0 0,0 0,0 -0.17489,-0.14929 -0.3629,-0.2925 -0.5636,-0.42669 -0.58264,-0.38956 -1.18574,-0.64559 -1.75789,-0.78949 -0.72244,-0.18324 -1.3333,-0.17223 -1.7662,-0.0758 -0.20876,0.0456 -0.3664,0.10909 -0.47271,0.18868 -0.0443,0.0313 -0.0882,0.0719 -0.11082,0.1166 -0.013,0.0132 -0.0211,0.0493 -0.0207,0.0764 0.0176,0.0747 0.0627,0.0299 0.064,0.0282 z"
             id="path5443"
             inkscape:connector-curvature="0" />
        </g>
        <path
           sodipodi:nodetypes="ccccccccccccccccccccccsccccccccccccccssscsccccssscscccccccccsssssccsscscsccccccccsccccccccccccccccccsccssscccccscccccsccscccccccccsccsccccsccsccccccsssscccccccccccccccccccccccccccsccccsccccssccccccccccccccccccccccccccccccccccccccccccccccccccccccccccccc"
           inkscape:connector-curvature="0"
           id="path5445"
           d="m 499.31855,792.13803 c -0.27002,-0.0128 -0.52911,-0.007 -0.77919,0.007 -1.01454,0.0546 -1.90146,0.26367 -2.63076,0.50048 -1.78069,0.57382 -3.22084,1.39205 -4.35903,2.0963 -0.001,8.8e-4 -0.002,0.002 -0.004,0.004 -1.53789,0.94585 -2.90495,1.94919 -4.08606,2.86975 -2.96569,2.31054 -5.42648,4.626 -7.03414,6.22728 -0.0467,0.0465 -0.0648,0.0718 -0.11059,0.11755 -2.18616,-0.83387 -4.97368,-1.63102 -8.32129,-2.01395 l -0.001,0 c -1.27509,-0.14556 -2.60024,-0.2287 -3.96743,-0.23786 l -6e-4,0 c -2.41127,-0.0165 -4.67018,0.19946 -6.72717,0.55806 -2.19173,0.38173 -3.96775,0.91865 -5.53965,1.47893 -1.46432,-1.12005 -3.64041,-2.63327 -6.35744,-4.05553 -1.17595,-0.61549 -2.5275,-1.25061 -4.0331,-1.79856 l -0.002,-5.9e-4 c -1.28888,-0.47039 -2.78973,-0.91147 -4.47539,-1.13686 -1.46581,-0.20032 -3.19282,-0.23221 -5.03516,0.22921 -0.007,0.002 -0.0128,0.004 -0.0201,0.005 -1.82215,0.46587 -3.56653,1.43232 -4.96261,2.91811 -0.0128,0.0128 -0.0244,0.0264 -0.0362,0.0397 -0.52754,0.5759 -0.98015,1.19647 -1.35915,1.84116 -0.60683,1.03228 -1.0117,2.09576 -1.27159,3.13179 -0.46066,1.81967 -0.53076,3.53597 -0.46362,5.03055 2e-5,2e-4 0,2.9e-4 0,5.9e-4 0.16112,3.67389 1.08208,6.9158 1.90799,9.39247 3e-4,10e-4 8.8e-4,0.002 10e-4,0.004 2.2e-4,5.8e-4 2.9e-4,0.002 5.8e-4,0.002 1.03682,3.12074 2.21246,5.70882 3.11452,7.48276 0.0147,0.0308 0.0315,0.0613 0.0478,0.0915 0.0165,0.0317 0.0275,0.0465 0.0443,0.0778 -0.19118,0.58345 -0.37493,1.1399 -0.62429,1.9673 -0.0288,0.095 -0.054,0.19112 -0.076,0.28796 -0.51759,2.28388 -1.03687,5.78986 -0.57014,9.93728 l 5.9e-4,0.004 c 0.0254,0.22476 0.0895,0.47036 0.12157,0.69915 -1.0192,1.17241 -1.76467,2.35286 -2.26332,3.40708 -0.36601,0.77377 -0.63462,1.4713 -0.79532,2.34739 -0.0804,0.43804 -0.16039,0.90896 -0.0623,1.69259 0.0981,0.78355 0.437,2.41078 2.30594,3.41685 1.71766,0.92448 3.37907,0.4039 4.07514,0.0714 0.31784,-0.15178 0.53562,-0.28855 0.72217,-0.41812 0.26781,0.40406 0.4819,0.81943 0.77978,1.21575 l 10e-4,0.002 c 0.0665,0.0882 0.14849,0.16331 0.21598,0.25052 -0.12432,0.3907 -0.28203,0.79501 -0.35706,1.16218 -0.1516,0.74179 -0.24049,1.41768 -0.15545,2.30592 0.0425,0.44414 0.0994,0.94645 0.45324,1.70067 0.35382,0.75422 1.29183,2.11426 3.13352,2.48965 1.69247,0.34489 3.00661,-0.38799 3.59424,-0.83046 0.20271,-0.1527 0.32093,-0.27436 0.45267,-0.40084 2.15591,1.37925 4.4781,2.52611 6.93391,3.45487 4.83159,1.83218 10.27375,3.02722 16.03501,3.05635 0.42836,0.002 0.85631,-0.002 1.2837,-0.0128 l 0.002,0 c 4.82186,-0.12541 9.42151,-1.07114 13.60868,-2.59963 3.20557,-1.16969 6.15692,-2.66269 8.81198,-4.40224 l 10e-4,-5.9e-4 c 0.22161,-0.14537 0.43196,-0.31559 0.65136,-0.46591 0.18071,0.2267 0.40267,0.48307 0.85636,0.82469 0.58765,0.44249 1.90179,1.17538 3.59426,0.83046 1.84213,-0.37543 2.78118,-1.73723 3.13465,-2.49194 0.35348,-0.75472 0.40987,-1.25682 0.45209,-1.70067 0.0844,-0.88767 -0.005,-1.5627 -0.15599,-2.30363 -0.14062,-0.6879 -0.37539,-1.43615 -0.70607,-2.21033 0.1613,-0.24697 0.28972,-0.49498 0.43942,-0.74292 0.11131,0.10546 0.17576,0.19396 0.30868,0.30869 0.27024,0.23325 0.56577,0.50893 1.26182,0.8414 0.69598,0.33246 2.35708,0.85267 4.07455,-0.0714 1.87008,-1.00648 2.20878,-2.63543 2.30651,-3.41918 0.0978,-0.78374 0.0183,-1.25483 -0.0628,-1.69259 -0.16094,-0.87552 -0.42958,-1.57188 -0.79532,-2.34509 -0.66167,-1.39884 -1.74606,-3.0151 -3.36849,-4.54507 0.48719,-4.00554 0.11883,-7.41066 -0.23151,-9.49843 -0.0147,-0.0903 -0.0313,-0.14318 -0.0467,-0.23037 0.63188,-1.11144 1.22207,-2.37745 1.75134,-3.86895 l 0,-5.9e-4 c 0.93132,-2.62421 1.60154,-5.57103 2.0485,-9.04578 0.36959,-2.86224 0.5648,-5.92002 0.56267,-9.19495 l 0,-5.8e-4 c -6e-4,-1.68274 -0.0509,-3.43562 -0.18089,-5.23442 -0.0657,-0.91014 -0.15233,-1.81336 -0.25801,-2.71081 -0.10253,-1.02605 -0.40853,-2.19244 -1.06831,-3.3224 -0.011,-0.0196 -0.0233,-0.0392 -0.0351,-0.0588 -0.70118,-1.15764 -1.74468,-2.09418 -2.98378,-2.66991 -0.0406,-0.0189 -0.0815,-0.0372 -0.12267,-0.0547 -0.87172,-0.37202 -1.76136,-0.55456 -2.59388,-0.59204 l -5.9e-4,0 z m -3.34199,7.82946 c 0.007,9e-4 0.0189,0.0331 0.0271,0.072 0.004,0.0253 0.004,0.0518 0.007,0.0771 -0.0242,-0.0826 -0.0445,-0.1505 -0.0341,-0.14922 z m 0.28853,3.71059 c 0.0533,1.05829 0.11315,2.12045 0.12432,3.16056 0.0308,2.90514 -0.0861,5.55238 -0.32595,8.01204 -0.29655,3.02102 -0.71109,5.27633 -1.26931,7.26564 -0.23576,0.84011 -0.46309,1.38511 -0.69224,1.96788 -0.2768,0.3108 -0.5026,0.61531 -0.62141,0.84372 -0.33666,0.6472 -0.38093,1.00208 -0.42731,1.26641 -0.019,0.10894 -0.004,0.10381 -0.0146,0.18717 -0.0666,0.11498 -0.14262,0.25999 -0.20848,0.37261 -0.10271,0.17558 -0.19999,0.32013 -0.38356,0.7124 -0.0917,0.19614 -0.22734,0.42237 -0.35821,1.07349 -0.12761,0.6347 -0.30336,2.44708 1.23476,3.93921 0.0146,0.67895 0.0205,1.32343 -0.0191,2.09976 -0.90047,-0.0331 -1.75478,0.0403 -2.55933,0.21885 -0.74238,0.1624 -1.54934,0.39439 -2.47583,1.08039 -0.24093,0.16863 -0.53215,0.43473 -0.84659,0.80512 -0.89469,0.9638 -0.88529,1.44432 -0.98594,1.83601 -0.10637,0.414 -0.14995,0.72091 -0.14336,1.19903 0.004,0.31056 0.0421,0.61974 0.11352,0.92202 0.1104,0.46794 0.33516,1.18038 1.03261,1.93793 -0.60165,-0.0165 -1.25278,0.009 -2.11646,0.30467 -0.25598,0.0785 -0.5917,0.23109 -0.98942,0.47627 -1.03903,0.58103 -1.24378,1.04417 -1.47087,1.39485 -0.24327,0.37566 -0.39113,0.67223 -0.53847,1.17428 -0.0994,0.33851 -0.15654,0.68809 -0.1699,1.04066 -0.0225,0.59852 0.03,1.60174 0.79188,2.67855 0.15745,0.22249 0.35688,0.4131 0.56093,0.59663 -1.63556,0.91838 -3.36497,1.76524 -5.26494,2.44128 -3.22637,1.14735 -6.76936,1.85657 -10.43717,1.94886 l -0.004,0 c -0.32575,0.009 -0.65028,0.0128 -0.9727,0.011 l -0.002,0 c -4.38612,-0.0198 -8.67688,-0.92927 -12.54673,-2.35431 -0.99141,-0.36635 -1.90033,-0.78099 -2.78509,-1.20884 0.0383,-0.03 0.0646,-0.0509 0.0967,-0.076 0.3071,-0.23642 0.59373,-0.50069 0.81607,-0.81548 0.76057,-1.07682 0.81206,-2.07808 0.78957,-2.67567 -0.0128,-0.35236 -0.0701,-0.70173 -0.16935,-1.0401 -0.14757,-0.50291 -0.29626,-0.79909 -0.53962,-1.17485 -0.22718,-0.35074 -0.43145,-0.81392 -1.4703,-1.39485 -0.39804,-0.24535 -0.73388,-0.39822 -0.98999,-0.47683 -0.97554,-0.33444 -1.69598,-0.33691 -2.36065,-0.30813 -0.10692,0.004 -0.22161,0.0427 -0.32941,0.0507 0.0888,-0.0668 0.19768,-0.11773 0.27645,-0.1912 0.91764,-0.85695 1.14824,-1.6804 1.27159,-2.20284 0.0719,-0.30472 0.11022,-0.61643 0.11406,-0.92951 0.005,-0.47247 -0.0375,-0.77746 -0.14335,-1.19041 -0.10034,-0.39075 -0.0903,-0.87131 -0.98711,-1.83714 -0.31437,-0.37027 -0.60511,-0.63661 -0.84601,-0.80512 -0.92648,-0.686 -1.73347,-0.91798 -2.47583,-1.08041 -1.13244,-0.25122 -2.36183,-0.29844 -3.68466,-0.12084 -0.005,-1.47247 0.11242,-2.79941 0.25858,-3.82519 0.0146,-0.0652 0.0192,-0.0989 0.0328,-0.1624 0.57794,-0.52674 0.96371,-1.13186 1.14376,-1.57453 0.27225,-0.66941 0.29775,-1.09261 0.31617,-1.40867 0.0368,-0.63212 -0.0282,-0.9015 -0.0714,-1.15008 -0.0864,-0.4972 -0.18181,-0.8008 -0.29313,-1.15815 -0.22262,-0.71473 -0.52206,-1.52757 -0.91512,-2.53803 l 0.0368,0.0974 c -0.59485,-1.64666 -1.46473,-4.05487 -2.18788,-6.65348 -0.60176,-2.17315 -1.17084,-4.65218 -1.22207,-6.83084 -0.019,-0.88328 0.0507,-1.62625 0.17742,-2.10148 0.0743,-0.26766 0.16404,-0.47171 0.20963,-0.55057 0.0302,-0.0524 0.0383,-0.0524 0.004,-0.0146 0.0183,-0.0188 0.0351,-0.0379 0.0524,-0.0569 -0.0897,0.0981 -0.03,0.03 0.0461,0.009 0.009,-0.002 0.0165,-0.004 0.0247,-0.007 0.0996,-0.0278 0.56372,-0.0787 1.20076,-0.0146 0.7044,0.0762 1.54134,0.28014 2.41363,0.56093 2.1e-4,5e-5 3e-4,-7e-5 5.9e-4,0 0.99672,0.32242 2.00082,0.7367 2.94692,1.16851 l 5.9e-4,0 c 1.59613,0.7283 3.01473,1.50745 4.25077,2.20746 0.0796,0.28639 0.16826,0.53131 0.24016,0.68532 0.011,0.0258 0.024,0.0516 0.0362,0.0771 0.13109,0.26728 0.40598,0.74296 0.8558,1.18293 l 5.8e-4,5.8e-4 c 0.35241,0.34452 0.67346,0.55052 0.93815,0.69627 0.58349,0.32149 1.01395,0.4175 1.36664,0.47858 0.70737,0.12395 1.00868,0.0703 1.25433,0.0483 l 0.005,-5.9e-4 c 0.5201,-0.0469 0.77864,-0.11534 1.07752,-0.1843 0.56577,-0.13072 1.19949,-0.30508 1.90164,-0.48434 1.52247,-0.38854 3.40558,-0.83139 5.82474,-1.13972 1.59964,-0.20345 3.32998,-0.32831 5.16762,-0.31617 1.04137,0.007 2.04584,0.0575 3.01429,0.14336 l 0.001,0 c 2.79973,0.24794 5.12635,0.78732 6.97654,1.28023 0.43354,0.36038 0.88624,0.63084 1.24224,0.7648 0.22134,0.0833 0.44921,0.14794 0.6813,0.19351 0.49189,0.0965 0.9409,0.0939 1.2929,0.0564 l 0.002,-6e-4 c 0.20845,-0.0223 0.25995,-0.0727 0.41349,-0.10711 0.23005,0.0421 0.45016,0.095 0.98654,0.076 0.3153,-0.011 0.73527,-0.022 1.43055,-0.28391 0.69529,-0.26199 1.84568,-0.98503 2.42515,-2.2737 0.13439,-0.29877 0.22398,-0.59579 0.28277,-0.88401 0.007,-0.005 0.011,-0.009 0.019,-0.0146 1.59925,-1.31411 4.10906,-3.38965 6.68398,-5.24191 l 6e-4,-5.9e-4 c 0.91549,-0.65824 1.8881,-1.29538 2.85534,-1.88207 z m -47.06778,5.19698 c -0.004,0.0165 8.8e-4,0.0244 -0.002,0.0397 -0.004,0.022 -0.011,0.0309 -0.0147,0.0536 l 0.0165,-0.0934 z m 27.25137,0.53156 c -0.002,0.0128 -0.004,0.0416 -0.005,0.0553 -8.8e-4,0.007 -0.002,0.009 -0.004,0.0165 l 0.009,-0.072 z m -27.30146,0.71182 c 1.5e-4,0.001 2.9e-4,0.002 5.8e-4,0.004 1.5e-4,10e-4 -1.4e-4,0.004 0,0.005 l -5.8e-4,-0.009 z m 28.48208,2.90257 c 0.002,0.002 0.004,0.002 0.005,0.005 0.002,0.002 0.004,0.005 0.005,0.007 l -0.011,-0.0128 z m 9.26463,28.45676 c 0.0165,0.0425 0.0771,0.13109 0.0996,0.18199 -0.0165,-0.0315 -0.0648,-0.0893 -0.0784,-0.11754 l -0.0214,-0.0645 z m -38.48963,0.1181 c -0.0165,0.0796 -0.15581,0.27353 -0.11114,0.20789 0.0271,-0.0606 0.0925,-0.15855 0.11114,-0.20789 z m 39.27515,0.97789 c 0.006,1.9e-4 0.009,5.9e-4 0.006,5.9e-4 -10e-4,-5e-5 -0.004,-5.9e-4 -0.006,-5.9e-4 z m 0.86157,0.90936 c 0.0311,-0.0284 0.11132,0.1007 0.13182,0.0714 -0.0436,-0.0245 -0.0875,-0.0483 -0.13182,-0.0714 z m -42.12995,0.76595 c -0.011,0.007 -0.0211,0.0147 -0.0317,0.0218 l -0.002,-0.004 c 0,0 0.0286,-0.0165 0.0333,-0.0185 z m 46.40088,3.41226 c 0.002,8.8e-4 0.0128,0.009 0.0146,0.0128 -0.005,-0.004 -0.011,-0.009 -0.0146,-0.0128 z m -39.85857,0.83505 -0.007,0.12853 c -0.0353,0.16662 -0.0961,0.37995 -0.1866,0.61623 0.11681,-0.33097 0.17412,-0.57095 0.19466,-0.74466 z m 40.94358,0.47917 c 0.004,0.004 0.011,0.02 0.0128,0.0247 -0.004,-0.009 -0.007,-0.0165 -0.0128,-0.0247 z m -42.31769,2.0387 c -0.0183,0.0147 -0.0423,0.0326 -0.087,0.0674 -0.002,-10e-4 -0.005,-0.002 -0.007,-0.004 0.0311,-0.0227 0.0644,-0.0405 0.095,-0.0639 z"
           style="fill:#ffffff;fill-opacity:1;fill-rule:evenodd;stroke:none;stroke-width:1px;stroke-linecap:butt;stroke-linejoin:miter;stroke-opacity:1" />
        <path
           sodipodi:nodetypes="sssss"
           inkscape:connector-curvature="0"
           id="path5447"
           d="m 498.40345,833.68813 c 0,14.96522 -13.82553,26.65326 -31.0907,26.65326 -17.26515,0 -31.80957,-12.15869 -30.95419,-26.65326 1.00014,-16.94754 13.99612,-27.09706 31.26134,-27.09691 17.26515,1.6e-4 30.78355,12.1317 30.78355,27.09691 z"
           style="opacity:1;fill:#ffd1a0;fill-opacity:1;stroke:none;stroke-width:1;stroke-linecap:round;stroke-linejoin:miter;stroke-miterlimit:10;stroke-dasharray:none;stroke-dashoffset:0;stroke-opacity:1" />
        <path
           style="fill:#ffd1a0;fill-opacity:1;fill-rule:evenodd;stroke:none;stroke-width:1px;stroke-linecap:butt;stroke-linejoin:miter;stroke-opacity:1"
           d="m 438.44799,827.58522 c 0,0 -10.00877,-21.72634 -2.19704,-25.14397 7.81172,-3.41762 21.72635,9.27642 21.72635,9.27642 z"
           id="path5449"
           inkscape:connector-curvature="0" />
        <path
           style="fill:#ffd1a0;fill-opacity:1;fill-rule:evenodd;stroke:none;stroke-width:1px;stroke-linecap:butt;stroke-linejoin:miter;stroke-opacity:1"
           d="m 480.19188,810.7412 c 0,0 21.23812,-23.92339 21.97048,-6.59114 0.73234,17.33226 -9.50829,33.23495 -9.50829,33.23495 l -12.70631,-25.66734 z"
           id="path5451"
           inkscape:connector-curvature="0"
           sodipodi:nodetypes="csccc" />
        <path
           inkscape:connector-curvature="0"
           style="opacity:1;fill:#ffb245;fill-opacity:1;stroke:none;stroke-width:11;stroke-linecap:round;stroke-linejoin:round;stroke-miterlimit:4;stroke-dasharray:none;stroke-dashoffset:0;stroke-opacity:1"
           d="m 442.38004,835.85965 c -0.54947,0.007 -1.10547,0.14757 -1.62082,0.43522 l -4.1636,2.32432 a 31.124831,27.096909 0 0 0 2.35528,6.49421 l 5.13158,-2.86502 c 1.64911,-0.92063 2.23555,-2.98949 1.31492,-4.6386 -0.63294,-1.13376 -1.80853,-1.76533 -3.01736,-1.75013 z"
           id="path5453" />
        <path
           inkscape:connector-curvature="0"
           style="opacity:1;fill:#ffb245;fill-opacity:1;stroke:none;stroke-width:11;stroke-linecap:round;stroke-linejoin:round;stroke-miterlimit:4;stroke-dasharray:none;stroke-dashoffset:0;stroke-opacity:1"
           d="m 447.46239,843.12594 c -0.65572,0.0222 -1.31268,0.23429 -1.88615,0.64992 l -5.37892,3.89871 a 31.124831,27.096909 0 0 0 4.43939,5.20355 l 4.94117,-3.58147 c 1.52926,-1.10839 1.86796,-3.23197 0.75957,-4.76123 -0.69274,-0.95576 -1.78218,-1.4464 -2.87506,-1.40948 z"
           id="path5455" />
        <path
           id="path5457"
           d="m 487.4399,842.64332 c 0.65572,0.0222 1.31268,0.23426 1.88615,0.64991 l 5.3789,3.8987 a 31.124831,27.096909 0 0 1 -4.43939,5.20357 l -4.94115,-3.58149 c -1.52926,-1.10839 -1.86797,-3.23195 -0.75958,-4.76121 0.69275,-0.95576 1.78219,-1.44643 2.87507,-1.40948 z"
           style="opacity:1;fill:#ffb245;fill-opacity:1;stroke:none;stroke-width:11;stroke-linecap:round;stroke-linejoin:round;stroke-miterlimit:4;stroke-dasharray:none;stroke-dashoffset:0;stroke-opacity:1"
           inkscape:connector-curvature="0" />
        <path
           inkscape:connector-curvature="0"
           id="path5459"
           d="m 480.67972,810.04134 c -0.004,-0.004 -0.007,-0.009 -0.009,-0.0146 -0.001,-0.005 -0.001,-0.0128 -2.9e-4,-0.0216 0,0 0,0 0,0 0.002,-0.0165 0.009,-0.0375 0.0203,-0.063 l 0,0 0,0 c 0.0225,-0.0503 0.063,-0.11772 0.12103,-0.20163 l 0,0 c 0.11406,-0.1646 0.2947,-0.39145 0.54017,-0.67588 l 0,0 c 0.4672,-0.54136 1.16866,-1.29146 2.08213,-2.20116 l 0,0 c 1.51948,-1.51347 3.86983,-3.72204 6.6463,-5.8851 l 0,0 c 1.10743,-0.86314 2.35178,-1.77337 3.70229,-2.6037 l 0,0 0,0 0,0 c 1.01007,-0.62536 2.15463,-1.25876 3.43655,-1.67137 l 0,0 c 0.47221,-0.15361 0.99491,-0.27308 1.55929,-0.3021 l 0,0 c 0.453,-0.0289 0.95662,0.0357 1.45984,0.25049 l 0,0 c 0.4779,0.22203 0.86856,0.57516 1.13274,1.01131 0,0 0,0 0,0 l 0,0 c 0.30941,0.52992 0.45842,1.08472 0.5095,1.60169 0.10144,0.85202 0.18309,1.71447 0.24615,2.58821 0.12121,1.67928 0.16936,3.33126 0.17009,4.92981 0.002,3.10425 -0.18324,5.97781 -0.52788,8.64696 -0.41723,3.24448 -1.02662,5.88005 -1.83799,8.16613 -0.48586,1.36925 -1.00291,2.46815 -1.53346,3.37395 -1.07117,1.83156 -2.03501,2.54237 -2.11983,2.46562 -0.11169,-0.10107 0.62395,-0.98843 1.438,-2.81653 0.41097,-0.92469 0.80397,-1.99505 1.18446,-3.35087 0.63789,-2.27322 1.09314,-4.80048 1.40749,-8.00414 0.25574,-2.62131 0.3783,-5.42431 0.34607,-8.47194 -0.0165,-1.56861 -0.0721,-3.18439 -0.18992,-4.819 -0.0613,-0.85087 -0.13841,-1.68889 -0.23274,-2.51574 -0.0533,-0.37698 -0.12157,-0.70863 -0.27231,-0.93734 0,0 0,0 0,0 -0.10106,-0.16588 -0.24625,-0.30725 -0.40115,-0.37347 -0.17613,-0.0947 -0.43304,-0.11645 -0.71538,-0.11663 l 0,0 c -0.36256,0.007 -0.7495,0.0961 -1.1466,0.21167 l 0,0 c -1.08571,0.32061 -2.13488,0.88238 -3.12424,1.4524 0,0 0,0 0,0 -1.30166,0.75531 -2.5364,1.60163 -3.6524,2.40405 l 0,0 c -2.73256,1.9656 -5.31744,4.10773 -6.90182,5.40963 l 0,0 c -0.99103,0.81443 -1.7761,1.46068 -2.33976,1.89937 l 0,0 c -0.29457,0.22926 -0.52825,0.40155 -0.69523,0.50943 l 0,0 c -0.0853,0.0551 -0.15361,0.0937 -0.20431,0.11498 l 0,0 0,0 c -0.0256,0.011 -0.0467,0.0165 -0.0634,0.0189 0,0 0,0 0,0 -0.009,9e-4 -0.0146,6.1e-4 -0.0214,-5.8e-4 -0.005,-0.002 -0.011,-0.005 -0.0147,-0.009 z"
           style="fill:#f2a060;fill-opacity:1;fill-rule:evenodd;stroke:none;stroke-width:1px;stroke-linecap:butt;stroke-linejoin:miter;stroke-opacity:1" />
        <path
           inkscape:connector-curvature="0"
           style="opacity:1;fill:#ffb245;fill-opacity:1;stroke:none;stroke-width:11;stroke-linecap:round;stroke-linejoin:round;stroke-miterlimit:4;stroke-dasharray:none;stroke-dashoffset:0;stroke-opacity:1"
           d="m 492.91797,834.99593 c 0.65148,0.0776 1.33325,0.29698 1.82432,0.80733 l 3.32588,3.45669 c -1.39036,1.77152 -1.31996,4.26962 -3.16072,5.69245 l -4.62004,-3.98713 c -1.42987,-1.23395 -1.5875,-3.37856 -0.35357,-4.80845 0.77122,-0.89365 1.8983,-1.29028 2.98413,-1.16089 z"
           id="path5461"
           sodipodi:nodetypes="csccccc" />
        <path
           inkscape:connector-curvature="0"
           id="path5463"
           d="m 437.52128,826.74477 c 0.1029,0.0265 -0.12157,1.29928 -0.61651,3.58319 -0.27922,1.93907 -0.55035,4.91572 -0.0392,8.24949 0.23389,1.53554 0.64189,3.19208 1.3122,4.85164 0.65621,1.626 1.57223,3.26805 2.78203,4.8076 1.2696,1.61774 2.85202,3.10447 4.70963,4.40757 2.1031,1.47596 4.4988,2.67417 7.1366,3.6485 4.27404,1.57388 9.04261,2.59453 14.00152,2.61694 0.369,0.002 0.7371,-0.002 1.10417,-0.011 4.14642,-0.10436 8.12887,-0.90331 11.75987,-2.19462 2.79488,-0.99447 5.36231,-2.25773 7.66697,-3.72073 0.70685,-0.4484 1.38192,-0.91023 2.02316,-1.3967 0.2598,-0.20438 0.51792,-0.40739 0.77426,-0.60895 -5.8e-4,10e-4 -0.002,10e-4 -0.002,10e-4 0.002,-0.002 0.0146,-0.011 0.0374,-0.0249 0.009,-0.005 0.0254,-0.0165 0.0507,-0.0337 0.0921,-0.0637 0.18659,-0.13659 0.28496,-0.21458 0.37318,-0.29641 0.72705,-0.62397 1.06661,-0.96437 1.27145,-1.27506 2.29063,-2.72086 3.09511,-4.17065 1.40307,-2.52858 2.1613,-5.15345 2.55086,-7.45122 0.56868,-3.34818 0.41638,-6.39311 0.2729,-8.22278 -0.15215,-1.94087 -0.32504,-2.9921 -0.21273,-3.0148 0.0763,-0.0146 0.43326,0.99875 0.76031,2.94734 0.31094,1.8527 0.64241,4.92058 0.19135,8.44052 -0.309,2.40558 -1.0154,5.17933 -2.43537,7.90647 -0.81217,1.55998 -1.86867,3.12977 -3.22051,4.54287 -0.35971,0.37618 -0.74697,0.74725 -1.1684,1.09572 -0.10912,0.0905 -0.22621,0.18342 -0.35311,0.2754 -0.0298,0.022 -0.0688,0.0493 -0.11736,0.0806 0.009,-0.005 0.007,-0.005 -0.005,4e-5 -0.004,10e-4 -0.007,0.004 -0.0128,0.005 -0.21782,0.18218 -0.43539,0.3656 -0.65407,0.54995 -0.6754,0.53012 -1.38183,1.03078 -2.11609,1.5121 -2.3789,1.55862 -5.03709,2.9056 -7.93672,3.96358 -3.77329,1.3774 -7.92333,2.22946 -12.25752,2.34217 -0.38385,0.009 -0.76861,0.0128 -1.15416,0.011 -5.18393,-0.0262 -10.135,-1.10714 -14.54746,-2.78082 -2.73614,-1.03477 -5.23794,-2.32914 -7.44298,-3.9225 -1.95014,-1.40969 -3.60589,-3.02773 -4.92899,-4.78581 -1.25942,-1.67555 -2.19123,-3.44978 -2.83932,-5.19717 -0.6606,-1.78272 -1.03236,-3.53877 -1.21553,-5.15347 -0.39666,-3.52481 0.0483,-6.56236 0.49145,-8.51759 0.68029,-2.25724 1.10149,-3.47943 1.20438,-3.45281 z"
           style="fill:#f2a060;fill-opacity:1;fill-rule:evenodd;stroke:none;stroke-width:1px;stroke-linecap:butt;stroke-linejoin:miter;stroke-opacity:1" />
        <path
           style="opacity:1;fill:#ffb245;fill-opacity:1;stroke:none;stroke-width:11;stroke-linecap:round;stroke-linejoin:round;stroke-miterlimit:4;stroke-dasharray:none;stroke-dashoffset:0;stroke-opacity:1"
           d="m 461.57981,807.0985 c -2.27251,0.39399 -4.48738,1.00769 -6.60344,1.82965 l 0.99804,5.10394 c 0.32165,1.8611 2.33754,4.78347 4.19863,4.46182 1.2795,-0.22114 2.26546,-1.12069 2.65202,-2.26616 0.17576,-0.52065 -0.0317,-2.77496 -0.13219,-3.35656 z"
           id="path5465"
           inkscape:connector-curvature="0"
           sodipodi:nodetypes="cccsccc" />
        <path
           style="opacity:1;fill:#ffb245;fill-opacity:1;stroke:none;stroke-width:1;stroke-linecap:round;stroke-linejoin:miter;stroke-miterlimit:10;stroke-dasharray:none;stroke-dashoffset:0;stroke-opacity:1"
           d="m 474.51787,807.21522 -0.74993,4.89681 c -0.28601,1.86691 0.0405,4.51559 1.90734,4.80158 1.28349,0.19662 2.91579,-0.29734 3.64608,-1.26078 0.33194,-0.43791 0.91409,-1.52784 1.18602,-2.50796 0.27192,-0.98009 0.56056,-2.63625 0.60932,-3.9782 -2.10875,-0.86349 -4.32223,-1.51807 -6.59883,-1.95145 z"
           id="path5467"
           inkscape:connector-curvature="0"
           sodipodi:nodetypes="ccsczcc" />
        <path
           style="opacity:1;fill:#ffb245;fill-opacity:1;stroke:none;stroke-width:1;stroke-linecap:round;stroke-linejoin:miter;stroke-miterlimit:10;stroke-dasharray:none;stroke-dashoffset:0;stroke-opacity:1"
           d="m 467.61972,806.59125 c -1.06692,0.009 -2.13256,0.0674 -3.1927,0.17247 l 0.29629,4.56705 c 0.12212,1.88472 1.30664,5.41813 3.19138,5.29594 1.29575,-0.084 2.37156,-0.87402 2.87757,-1.97195 0.4997,-0.93061 0.90301,-2.40972 0.73536,-3.76467 l -0.26532,-4.0933 c -1.20854,-0.13054 -2.42482,-0.19909 -3.64258,-0.20548 z"
           id="path5469"
           inkscape:connector-curvature="0"
           sodipodi:nodetypes="cccscccc" />
        <circle
           style="opacity:1;fill:#aa4400;fill-opacity:1;stroke:none;stroke-width:8;stroke-linecap:round;stroke-linejoin:round;stroke-miterlimit:4;stroke-dasharray:none;stroke-dashoffset:0;stroke-opacity:1"
           id="circle5471"
           cx="452.69827"
           cy="830.09717"
           r="4.6382098" />
        <circle
           r="4.6382098"
           cy="830.09717"
           cx="482.5415"
           id="circle5473"
           style="opacity:1;fill:#aa4400;fill-opacity:1;stroke:none;stroke-width:8;stroke-linecap:round;stroke-linejoin:round;stroke-miterlimit:4;stroke-dasharray:none;stroke-dashoffset:0;stroke-opacity:1" />
        <path
           sodipodi:nodetypes="cscc"
           inkscape:connector-curvature="0"
           id="path5475"
           d="m 494.58127,819.16839 c 0.45,-0.55578 -3.39217,-7.18507 -5.61127,-6.49935 -1.70081,0.52558 6.42795,-0.412 6.08947,-5.63539 5.34995,2.68314 0.69717,12.578 -0.4782,12.13474 z"
           style="fill:#ffaaaa;fill-rule:evenodd;stroke:none;stroke-width:1px;stroke-linecap:butt;stroke-linejoin:miter;stroke-opacity:1" />
        <path
           style="fill:#ffaaaa;fill-rule:evenodd;stroke:none;stroke-width:1px;stroke-linecap:butt;stroke-linejoin:miter;stroke-opacity:1"
           d="m 441.64009,819.82228 c -0.11956,-1.22498 4.70225,-7.58233 5.81148,-6.28023 1.24212,-1.27518 -7.34255,-0.24638 -7.68422,-5.46956 -4.95687,3.35416 0.76475,12.3417 1.87274,11.74979 z"
           id="path5477"
           inkscape:connector-curvature="0"
           sodipodi:nodetypes="cccc" />
        <circle
           style="opacity:1;fill:#ffffff;fill-opacity:1;stroke:none;stroke-width:5;stroke-linecap:round;stroke-linejoin:miter;stroke-miterlimit:4;stroke-dasharray:none;stroke-dashoffset:0;stroke-opacity:1"
           id="circle5479"
           cx="454.07141"
           cy="829.11096"
           r="2.6242504" />
        <circle
           r="2.6242504"
           cy="829.11096"
           cx="483.91464"
           id="circle5481"
           style="opacity:1;fill:#ffffff;fill-opacity:1;stroke:none;stroke-width:5;stroke-linecap:round;stroke-linejoin:miter;stroke-miterlimit:4;stroke-dasharray:none;stroke-dashoffset:0;stroke-opacity:1" />
        <ellipse
           style="opacity:1;fill:#ffaaaa;fill-opacity:1;stroke:none;stroke-width:5;stroke-linecap:round;stroke-linejoin:miter;stroke-miterlimit:4;stroke-dasharray:none;stroke-dashoffset:0;stroke-opacity:1"
           id="ellipse5483"
           cx="452.69827"
           cy="837.61993"
           rx="3.1735122"
           ry="1.0634085" />
        <ellipse
           ry="1.0634085"
           rx="3.1735122"
           cy="837.61993"
           cx="483.16507"
           id="ellipse5485"
           style="opacity:1;fill:#ffaaaa;fill-opacity:1;stroke:none;stroke-width:5;stroke-linecap:round;stroke-linejoin:miter;stroke-miterlimit:4;stroke-dasharray:none;stroke-dashoffset:0;stroke-opacity:1" />
        <path
           inkscape:connector-curvature="0"
           id="path5487"
           d="m 453.39314,809.69254 c -0.002,-0.005 -0.004,-0.009 -0.004,-0.0165 -6.1e-4,-0.005 -2.9e-4,-0.011 8.8e-4,-0.0183 0,0 0,0 0,0 0.002,-0.0128 0.007,-0.0267 0.0165,-0.0423 0,0 0,0 0,0 l 0,0 c 0.0183,-0.0313 0.0489,-0.0683 0.0928,-0.11058 l 0,0 0,0 c 0.0883,-0.085 0.22729,-0.18954 0.41693,-0.31102 l 0,0 c 0.38094,-0.24398 0.94766,-0.54452 1.70184,-0.87165 1.52287,-0.66064 3.69281,-1.38258 6.41183,-1.85607 l 0,0 c 1.82096,-0.31746 3.82748,-0.5093 5.96658,-0.49502 1.21345,0.007 2.38671,0.082 3.51212,0.21057 0,0 0,0 0,0 3.391,0.38788 6.18204,1.26164 8.12942,2.08019 1.93467,0.8132 2.96768,1.53065 2.89602,1.69001 -0.0846,0.18805 -1.25907,-0.20378 -3.22513,-0.73465 -1.99516,-0.53874 -4.70082,-1.18156 -7.9596,-1.47017 0,0 0,0 0,0 -1.08019,-0.0959 -2.20185,-0.15196 -3.36355,-0.15965 -2.04847,-0.0128 -3.96873,0.12523 -5.73355,0.3497 l 0,0 c -2.65699,0.33855 -4.75238,0.83284 -6.34127,1.23834 -0.73569,0.1878 -1.4155,0.37076 -1.80739,0.46132 l 0,0 c -0.21313,0.0493 -0.38287,0.0818 -0.50117,0.0925 l 0,0 0,0 c -0.0597,0.005 -0.10729,0.005 -0.14208,-9e-4 l 0,0 c 0,0 0,0 0,0 -0.0183,-0.004 -0.0319,-0.007 -0.043,-0.0128 0,0 0,0 0,0 -0.005,-0.004 -0.011,-0.007 -0.0147,-0.011 -0.004,-0.004 -0.007,-0.009 -0.009,-0.0128 z"
           style="fill:#f2a060;fill-opacity:1;fill-rule:evenodd;stroke:#ff5555;stroke-width:0;stroke-linecap:butt;stroke-linejoin:miter;stroke-miterlimit:4;stroke-dasharray:none;stroke-opacity:1" />
        <path
           inkscape:connector-curvature="0"
           id="path5489"
           d="m 455.44468,809.26678 c -0.0884,0.12432 -1.06892,-0.3963 -2.7129,-1.4114 -1.37544,-0.79674 -3.52414,-2.03882 -5.92377,-3.13371 -1.04401,-0.47651 -2.19797,-0.95602 -3.41142,-1.34822 0,0 0,0 0,0 -1.03768,-0.33406 -2.1491,-0.62333 -3.27853,-0.74383 -0.93879,-0.0959 -1.90863,-0.0967 -2.79059,0.14976 -0.77872,0.21251 -1.52549,0.631 -2.07267,1.23049 -0.22762,0.24044 -0.42665,0.51467 -0.59982,0.81455 -0.27846,0.48228 -0.48497,1.02217 -0.63521,1.57386 -0.28471,1.06234 -0.34611,2.19865 -0.322,3.30667 0.0652,2.80186 0.74402,5.59346 1.37524,7.87296 0.77736,2.79457 1.69325,5.32137 2.28688,6.96462 0.74867,1.92464 1.11,3.06011 0.96648,3.12644 -0.14355,0.0663 -0.77433,-0.94498 -1.75931,-2.77152 -0.81929,-1.61122 -1.9158,-4.02533 -2.87028,-6.89935 -0.76797,-2.30237 -1.56093,-5.17735 -1.69495,-8.23553 -0.0546,-1.20982 0.009,-2.50758 0.33751,-3.80131 0.17137,-0.68497 0.43659,-1.37103 0.81392,-2.01291 0.2345,-0.39889 0.50941,-0.77582 0.82672,-1.12222 0.80668,-0.85851 1.83518,-1.43199 2.91096,-1.70704 1.17866,-0.29521 2.35543,-0.28725 3.42649,-0.14043 1.28745,0.17137 2.49589,0.51979 3.58713,0.91812 0,0 0,0 0,0 1.28034,0.46573 2.46396,1.01911 3.51801,1.5708 2.46197,1.28875 4.47841,2.6916 5.7871,3.69504 1.50875,1.22498 2.3234,1.97975 2.23501,2.10416 z"
           style="fill:#f2a060;fill-opacity:1;fill-rule:evenodd;stroke:none;stroke-width:1px;stroke-linecap:butt;stroke-linejoin:miter;stroke-opacity:1" />
        <path
           inkscape:connector-curvature="0"
           id="path5491"
           d="m 444.6178,839.84848 c -0.011,-0.0128 -0.0491,-0.0908 -0.0846,-0.0165 -0.004,0.0229 -0.011,0.0657 -0.0183,0.0661 -0.0227,0.011 -0.0868,0.0602 -0.15965,0.0663 0.005,-10e-4 -0.60128,0.13219 -0.75125,0.16021 -0.74108,0.15031 -1.54414,0.33878 -2.68183,0.78314 -0.85614,0.33777 -1.74773,0.79082 -2.65879,1.40049 -0.31326,0.20964 -0.6128,0.42711 -0.89834,0.64902 0,0 0,0 0,0 -1.27383,0.9863 -2.2772,2.09145 -3.00562,2.87676 -0.73588,0.79334 -1.22278,1.28964 -1.44405,1.17056 -0.20358,-0.10949 -0.11278,-0.8239 0.38581,-1.87811 0.49483,-1.04612 1.40708,-2.43248 2.84322,-3.66227 0,0 0,0 0,0 0.32022,-0.27334 0.66445,-0.53552 1.03191,-0.78121 1.06675,-0.71324 2.17096,-1.18201 3.21851,-1.44547 1.32271,-0.33551 2.44113,-0.31536 3.23373,-0.13878 0.38222,0.0835 0.67084,0.19971 0.86548,0.34543 0.0811,0.0573 0.16149,0.13164 0.2029,0.2135 0.0238,0.0242 0.0386,0.0903 0.0379,0.13988 -0.0322,0.13677 -0.1148,0.0548 -0.11718,0.0516 z"
           style="fill:#724a2f;fill-opacity:1;fill-rule:evenodd;stroke:none;stroke-width:1px;stroke-linecap:butt;stroke-linejoin:miter;stroke-opacity:1" />
        <path
           inkscape:connector-curvature="0"
           id="path5493"
           d="m 486.50277,847.19086 c 0.011,-0.007 0.0623,-0.0571 0.0752,0.004 -10e-4,0.0183 -0.005,0.0507 1.9e-4,0.0524 0.0165,0.0128 0.0595,0.0619 0.11955,0.0809 -0.004,-0.002 0.47693,0.21796 0.59706,0.26861 0.59074,0.25929 1.225,0.55919 2.08297,1.11492 0.6449,0.4207 1.29333,0.93359 1.92232,1.56597 0.21628,0.21743 0.41918,0.43791 0.60926,0.65886 0,0 0,0 0,0 0.84883,0.98297 1.44231,1.99951 1.87706,2.72494 0.43919,0.73287 0.73635,1.19666 0.95023,1.15306 0.19681,-0.0401 0.28372,-0.5855 0.10436,-1.46339 -0.17796,-0.87116 -0.6303,-2.07699 -1.56032,-3.27218 0,0 0,0 0,0 -0.20757,-0.26585 -0.43794,-0.52827 -0.69168,-0.78317 -0.73662,-0.73999 -1.5608,-1.30704 -2.38414,-1.71121 -1.03898,-0.51245 -1.98701,-0.72148 -2.69599,-0.74984 -0.34152,-0.0146 -0.61159,0.0128 -0.80911,0.0817 -0.0815,0.0262 -0.16643,0.0648 -0.22,0.11699 -0.0256,0.0128 -0.0533,0.0588 -0.0641,0.0956 -0.004,0.10729 0.0842,0.0634 0.0872,0.0617 z"
           style="fill:#724a2f;fill-opacity:1;fill-rule:evenodd;stroke:none;stroke-width:1px;stroke-linecap:butt;stroke-linejoin:miter;stroke-opacity:1" />
        <path
           style="fill:#724a2f;fill-opacity:1;fill-rule:evenodd;stroke:none;stroke-width:1px;stroke-linecap:butt;stroke-linejoin:miter;stroke-opacity:1"
           d="m 448.84816,847.73691 c -0.011,-0.007 -0.0623,-0.0571 -0.0752,0.004 10e-4,0.0183 0.005,0.0507 -1.8e-4,0.0524 -0.0165,0.0128 -0.0595,0.0619 -0.11956,0.0809 0.004,-0.002 -0.47693,0.21797 -0.59706,0.26861 -0.59072,0.25929 -1.22497,0.55921 -2.08297,1.11494 -0.6449,0.42071 -1.29331,0.93358 -1.92231,1.56595 -0.21629,0.21744 -0.41917,0.43792 -0.60925,0.65887 0,0 0,0 0,0 -0.84884,0.98299 -1.44231,1.99952 -1.87705,2.72494 -0.43922,0.73287 -0.73635,1.19666 -0.95024,1.15306 -0.1968,-0.0401 -0.28373,-0.5855 -0.10436,-1.4634 0.17796,-0.87116 0.63029,-2.07698 1.56031,-3.27216 0,0 0,0 0,0 0.20757,-0.26584 0.43793,-0.52828 0.69167,-0.78318 0.73665,-0.73999 1.56081,-1.30702 2.38416,-1.71121 1.03898,-0.51245 1.987,-0.72148 2.69599,-0.74984 0.3415,-0.0147 0.61158,0.0128 0.80911,0.0816 0.0815,0.0262 0.16625,0.0648 0.22,0.117 0.0254,0.0128 0.0531,0.0588 0.0639,0.0956 0.004,0.10729 -0.0842,0.0634 -0.0872,0.0617 z"
           id="path5495"
           inkscape:connector-curvature="0" />
        <path
           inkscape:connector-curvature="0"
           id="path5497"
           d="m 441.87354,820.7831 c -0.005,0.005 -0.0128,0.011 -0.0207,0.0165 -0.007,0.005 -0.0147,0.009 -0.0229,0.0128 -0.0165,0.007 -0.0344,0.0128 -0.0546,0.0165 0,0 0,0 0,0 l 0,0 c -0.0401,0.005 -0.0877,0.004 -0.14263,-0.007 l 0,0 c -0.10839,-0.0223 -0.24349,-0.0785 -0.40186,-0.1679 l 0,0 c -0.30778,-0.17375 -0.70072,-0.47312 -1.14032,-0.89743 l 0,0 c -0.80616,-0.77619 -1.8135,-2.0166 -2.57677,-3.66794 -0.34201,-0.72908 -0.62779,-1.55165 -0.7949,-2.4422 -0.18895,-1.00688 -0.2068,-1.9982 -0.0595,-2.93937 0.18697,-1.1267 0.6145,-2.08128 1.1143,-2.82112 1.25735,-1.84653 2.61959,-2.21943 2.78234,-2.03211 0.27884,0.32099 -0.60896,1.2199 -1.26431,2.86383 -0.26235,0.65086 -0.4764,1.41744 -0.54063,2.25661 -0.0632,0.70625 -0.0128,1.45353 0.14556,2.25426 0.13897,0.70422 0.35016,1.39597 0.58224,2.03672 0.53151,1.43534 1.24736,2.73998 1.72394,3.64691 l 0,0 c 0.26442,0.50183 0.47881,0.92129 0.60264,1.23318 l 0,0 c 0.0641,0.16131 0.10473,0.29692 0.11809,0.40315 l 0,0 c 0.007,0.0538 0.005,0.1007 -0.002,0.13988 l 0,0 c 0,0 0,0 0,0 -0.004,0.0198 -0.009,0.0377 -0.0183,0.0535 -0.004,0.007 -0.009,0.0146 -0.0128,0.0225 -0.005,0.007 -0.011,0.0146 -0.0165,0.0203 z"
           style="fill:#ff9b4b;fill-opacity:1;fill-rule:evenodd;stroke:none;stroke-width:1px;stroke-linecap:butt;stroke-linejoin:miter;stroke-opacity:1" />
        <path
           inkscape:connector-curvature="0"
           id="path5499"
           d="m 441.74434,820.81115 c -0.20125,-0.041 -0.2952,-0.52238 -0.28668,-1.29972 0,0 0,0 0,0 0.0416,-0.72417 0.23307,-1.73095 0.69976,-2.80642 0.17431,-0.40786 0.39465,-0.82862 0.67092,-1.23873 0.41147,-0.61084 0.89794,-1.12497 1.43912,-1.52729 0.55985,-0.41129 1.14614,-0.65453 1.68078,-0.7679 1.27163,-0.26292 1.95133,0.18236 1.93985,0.37462 -0.0165,0.28245 -0.70495,0.36979 -1.52931,0.82293 -0.35548,0.19208 -0.72404,0.44848 -1.09158,0.79463 -0.36698,0.33943 -0.70121,0.74873 -1.02971,1.24494 -0.21856,0.33011 -0.41981,0.6765 -0.60354,1.01008 -0.46186,0.85025 -0.84249,1.74163 -1.12298,2.33139 0,0 0,0 0,0 -0.29091,0.69701 -0.56562,1.10231 -0.76663,1.06147 z"
           style="fill:#ff9b4b;fill-opacity:1;fill-rule:evenodd;stroke:none;stroke-width:1px;stroke-linecap:butt;stroke-linejoin:miter;stroke-opacity:1" />
        <path
           inkscape:connector-curvature="0"
           id="path5501"
           d="m 494.2003,819.60508 c -0.011,-0.0147 -0.0192,-0.0298 -0.0267,-0.0461 -0.005,-0.0165 -0.011,-0.0346 -0.0128,-0.0538 0,0 0,0 0,0 -0.004,-0.0381 -0.002,-0.0816 0.007,-0.12981 l 0,0 0,0 c 0.0183,-0.0941 0.0619,-0.2089 0.1267,-0.34115 l 0,0 c 0.12413,-0.25325 0.33119,-0.58642 0.5762,-0.98123 l 0,0 c 0.44311,-0.71804 1.07365,-1.73873 1.47094,-2.90933 l 0,0 c 0,0 0,0 0,0 0.27297,-0.79474 0.44115,-1.69797 0.43213,-2.65079 -0.004,-0.42581 -0.0434,-0.83981 -0.11462,-1.23686 0,0 0,0 0,0 -0.25737,-1.60821 -1.05877,-3.1139 -1.58572,-4.13274 -0.55245,-1.06814 -0.89629,-1.7689 -0.67089,-1.98485 0.20136,-0.19293 0.95922,0.11278 1.92537,1.02085 0.93916,0.88278 2.14806,2.43939 2.6792,4.60787 0,0 0,0 0,0 0.12524,0.54568 0.19466,1.11652 0.20047,1.70202 0.0128,1.31431 -0.29496,2.53004 -0.79016,3.55197 0,0 0,0 0,0 l 0,0 c -0.72132,1.47184 -1.72754,2.46276 -2.51589,3.02239 l 0,0 c -0.43129,0.30743 -0.81374,0.49997 -1.1068,0.59171 l 0,0 c -0.15214,0.0476 -0.28011,0.0687 -0.38077,0.0639 l 0,0 0,0 c -0.0507,-0.002 -0.0943,-0.011 -0.13036,-0.0267 0,0 0,0 0,0 -0.0183,-0.007 -0.0344,-0.0165 -0.0485,-0.0278 -0.0128,-0.0128 -0.0256,-0.0251 -0.0361,-0.0395 z"
           style="fill:#ff9b4b;fill-opacity:1;fill-rule:evenodd;stroke:none;stroke-width:1px;stroke-linecap:butt;stroke-linejoin:miter;stroke-opacity:1" />
        <path
           inkscape:connector-curvature="0"
           id="path5503"
           d="m 494.58021,819.56222 c -0.31643,0.25074 -1.39406,-0.93281 -2.58141,-2.75819 0,0 0,0 0,0 -0.29654,-0.37023 -0.61293,-0.75872 -0.94491,-1.14362 -0.38513,-0.4465 -0.7486,-0.83878 -1.11282,-1.20236 0,0 0,0 0,0 -0.72515,-0.72328 -1.21279,-1.12275 -1.72238,-1.55046 -0.44478,-0.37332 -0.73748,-0.63752 -0.69548,-0.85276 0.0399,-0.20438 0.41854,-0.33476 1.05,-0.22925 0.63885,0.10675 1.46834,0.44971 2.33406,1.12959 0,0 0,0 0,0 0.46915,0.36893 0.93251,0.81334 1.37685,1.3311 0.387,0.45093 0.72537,0.91763 1.0162,1.37491 0,0 0,0 0,0 1.04832,2.0316 1.59686,3.6499 1.27989,3.90104 z"
           style="fill:#ff9b4b;fill-opacity:1;fill-rule:evenodd;stroke:none;stroke-width:1px;stroke-linecap:butt;stroke-linejoin:miter;stroke-opacity:1" />
        <path
           inkscape:connector-curvature="0"
           id="path5505"
           d="m 460.54259,838.68143 c 0.0207,0.0146 0.0447,0.456 0.12194,1.02389 0.0705,0.3685 0.20398,0.80625 0.46785,1.28012 0.22509,0.39857 0.55278,0.81636 0.99047,1.12791 0.43001,0.31449 0.99028,0.52662 1.62694,0.6052 0,0 2e-5,0 2e-5,0 0.48573,0.0498 1.01587,-0.007 1.4213,-0.24602 0.35791,-0.18695 0.67674,-0.51843 0.96783,-0.92365 0.47724,-0.65438 0.7726,-1.48114 1.03215,-2.42485 0.29135,-0.28797 0.58446,-0.57626 0.88149,-0.8682 0.0319,-0.0313 0.0637,-0.0626 0.0956,-0.0939 0.42539,0.28287 0.84322,0.56106 1.25768,0.83945 0.45937,0.82396 0.86605,1.54359 1.37434,2.153 0.31179,0.37653 0.6204,0.69594 0.958,0.92585 0.33513,0.22461 0.6773,0.37782 0.99918,0.4012 0.61699,0.0537 1.20582,-0.0599 1.67798,-0.30065 0.49132,-0.24528 0.88095,-0.61521 1.14919,-0.99842 0.30948,-0.45542 0.46245,-0.87684 0.50008,-1.25949 0.0745,-0.76184 -0.28676,-1.12121 -0.19514,-1.24148 -0.0165,0.0212 0.79977,-0.0734 0.99055,1.20078 0.0833,0.52654 0.0189,1.18642 -0.30772,1.85742 -0.27835,0.58576 -0.74565,1.18472 -1.43123,1.63507 -0.67736,0.43873 -1.52869,0.70628 -2.45415,0.69129 -0.65804,-0.0201 -1.29356,-0.22361 -1.84292,-0.57024 -0.53129,-0.33131 -0.98874,-0.74585 -1.38467,-1.20289 -0.66984,-0.77826 -1.18555,-1.62699 -1.67379,-2.50573 0.14501,-0.3868 0.29236,-0.77407 0.44289,-1.16947 0.0245,0.0278 0.0489,0.0557 0.0734,0.0835 0.22853,0.25958 0.45348,0.51503 0.67732,0.77079 -0.28556,1.10454 -0.71302,2.17424 -1.39448,3.11353 -0.42325,0.57732 -0.9779,1.06509 -1.63993,1.38967 -0.82552,0.37888 -1.68652,0.42266 -2.42993,0.26639 0,0 0,0 0,0 -0.88473,-0.17613 -1.64819,-0.58105 -2.22509,-1.11192 -0.57146,-0.53581 -0.91922,-1.15985 -1.10976,-1.72423 -0.2222,-0.65112 -0.25045,-1.23856 -0.19609,-1.68667 0.0709,-0.84505 0.49189,-1.09971 0.5788,-1.03721 z"
           style="fill:#c4824e;fill-opacity:1;fill-rule:nonzero;stroke:none;stroke-width:1px;stroke-linecap:butt;stroke-linejoin:miter;stroke-opacity:1" />
        <path
           style="fill:#724a2f;fill-opacity:1;fill-rule:evenodd;stroke:none;stroke-width:1px;stroke-linecap:butt;stroke-linejoin:miter;stroke-opacity:1"
           d="m 491.40796,839.17227 c -0.005,-0.002 0.55058,0.27541 0.68914,0.3393 0.68169,0.32723 1.41413,0.70662 2.40836,1.41607 0.74737,0.53714 1.50084,1.19475 2.23486,2.00897 0.2524,0.27997 0.48954,0.56417 0.71204,0.84924 l 0,0 c 0.99351,1.26826 1.69569,2.58546 2.20961,3.52523 0.51918,0.9494 0.86971,1.54985 1.11341,1.48857 0.22419,-0.0563 0.31112,-0.7712 0.0859,-1.91542 -0.22358,-1.13545 -0.76853,-2.70297 -1.85979,-4.24703 l 0,0 c -0.24351,-0.34342 -0.51305,-0.68193 -0.80915,-1.01013 -0.8596,-0.95278 -1.8154,-1.67768 -2.76652,-2.18966 -1.20028,-0.64921 -2.28958,-0.90356 -3.10127,-0.92648 -0.39103,-0.0127 -0.69933,0.0294 -0.92374,0.12298 -0.0927,0.0357 -0.1888,0.0881 -0.249,0.15729 -0.029,0.0176 -0.0595,0.0781 -0.071,0.12634 -0.0167,0.12381 0.22683,0.17661 0.32717,0.25473 z"
           id="path5507"
           inkscape:connector-curvature="0"
           sodipodi:nodetypes="ccccccsccccscccccc" />
      </g>
      <path
         inkscape:connector-curvature="0"
         id="path5509"
         d="m 472.31097,879.59236 c -1.63564,-0.12468 -3.76336,2.93211 -4.58926,4.22955 -0.83434,-1.31091 -2.98981,-4.41528 -4.63525,-4.22135 -1.24833,0.14695 -2.19508,2.19915 -2.03367,8.38609 0.26997,10.34864 -4.99099,14.54373 -8.95137,16.23408 a 26.684872,4.1605446 0 0 0 -11.53133,3.35888 l -0.0216,0 0.0105,3.68876 a 26.684872,4.1605446 0 0 0 -0.008,0.0246 26.684872,4.1605446 0 0 0 0.008,0.0352 l 0,0 a 26.684872,4.1605446 0 0 0 26.67564,4.12408 26.684872,4.1605446 0 0 0 26.67564,-4.12408 l 0,0 a 26.684872,4.1605446 0 0 0 0.0105,-0.0352 26.684872,4.1605446 0 0 0 -0.0105,-0.0457 l 0.0105,-3.66719 -0.0138,0 a 26.684872,4.1605446 0 0 0 -10.14941,-3.19917 c -3.99607,-1.56835 -9.6449,-5.6697 -9.36514,-16.39379 0.16367,-6.27378 -0.81018,-8.29668 -2.08235,-8.39429 z"
         style="fill:#000000;fill-rule:evenodd;stroke:none;stroke-width:1px;stroke-linecap:butt;stroke-linejoin:miter;stroke-opacity:1" />
    </g>
    <text
       xml:space="preserve"
       style="font-style:normal;font-variant:normal;font-weight:normal;font-stretch:normal;font-size:291.04931641px;line-height:125%;font-family:Nunito;-inkscape-font-specification:Nunito;text-align:center;letter-spacing:0px;word-spacing:0px;text-anchor:middle;fill:#ffffff;fill-opacity:1;stroke:none;stroke-width:1px;stroke-linecap:butt;stroke-linejoin:miter;stroke-opacity:1"
       x="1053.5289"
       y="953.59509"
       id="text3860"
       sodipodi:linespacing="125%"
       inkscape:export-xdpi="30.025919"
       inkscape:export-ydpi="30.025919"><tspan
         sodipodi:role="line"
         id="tspan3862"
         x="1053.5289"
         y="953.59509"
         style="letter-spacing:0px">Virtual Pet</tspan></text>
  </g>
</svg>
